<?xml version="1.0" encoding="UTF-8" standalone="no"?><!DOCTYPE svg PUBLIC "-//W3C//DTD SVG 1.1//EN" "http://www.w3.org/Graphics/SVG/1.1/DTD/svg11.dtd"><svg width="100%" height="100%" viewBox="0 0 945 945" version="1.1" xmlns="http://www.w3.org/2000/svg" xmlns:xlink="http://www.w3.org/1999/xlink" xml:space="preserve" xmlns:serif="http://www.serif.com/" style="fill-rule:evenodd;clip-rule:evenodd;stroke-linecap:round;stroke-linejoin:round;stroke-miterlimit:1.5;"><rect x="0" y="0" width="944.882" height="944.882" style="stroke:#000;stroke-width:1px;"/><rect id="Artboard1" x="0" y="0" width="944.882" height="944.882" style="fill:none;"/><path d="M104.41,471.926c0,-50.787 9.608,-98.485 28.825,-143.095c19.217,-44.61 45.468,-83.558 78.753,-116.843c33.286,-33.286 72.405,-59.537 117.358,-78.753c44.953,-19.217 92.823,-28.825 143.609,-28.825c50.787,0 98.485,9.608 143.095,28.825c44.61,19.217 83.558,45.468 116.843,78.753c33.286,33.286 59.537,72.234 78.753,116.843c19.217,44.61 28.825,92.308 28.825,143.095c0,50.787 -9.608,98.656 -28.825,143.609c-19.217,44.953 -45.468,84.072 -78.753,117.358c-33.286,33.286 -72.234,59.537 -116.843,78.753c-44.61,19.217 -92.308,28.825 -143.095,28.825c-50.787,0 -98.656,-9.608 -143.609,-28.825c-44.953,-19.217 -84.072,-45.468 -117.358,-78.753c-33.286,-33.286 -59.537,-72.405 -78.753,-117.358c-19.217,-44.953 -28.825,-92.823 -28.825,-143.609Zm263.541,0c0,14.412 2.745,27.967 8.236,40.664c5.49,12.697 13.04,23.849 22.648,33.457c9.608,9.608 20.761,17.158 33.457,22.648c12.697,5.49 26.251,8.236 40.664,8.236c14.412,0 27.795,-2.745 40.149,-8.236c12.353,-5.49 23.334,-13.04 32.943,-22.648c9.608,-9.608 17.158,-20.761 22.648,-33.457c5.49,-12.697 8.236,-26.251 8.236,-40.664c0,-14.412 -2.745,-27.795 -8.236,-40.149c-5.49,-12.353 -13.04,-23.334 -22.648,-32.943c-9.608,-9.608 -20.589,-17.158 -32.943,-22.648c-12.353,-5.49 -25.736,-8.236 -40.149,-8.236c-14.412,0 -27.967,2.745 -40.664,8.236c-12.697,5.49 -23.849,13.04 -33.457,22.648c-9.608,9.608 -17.158,20.589 -22.648,32.943c-5.49,12.353 -8.236,25.736 -8.236,40.149Zm-233.687,0c0,46.669 8.922,90.592 26.766,131.77c17.844,41.178 42.036,77.038 72.577,107.578c30.541,30.541 66.4,54.733 107.578,72.577c41.178,17.844 85.102,26.766 131.77,26.766c45.982,0 89.563,-8.922 130.741,-26.766c41.178,-17.844 77.038,-42.036 107.578,-72.577c30.541,-30.541 54.733,-66.4 72.577,-107.578c17.844,-41.178 26.766,-85.102 26.766,-131.77c0,-45.982 -8.922,-89.563 -26.766,-130.741c-17.844,-41.178 -42.036,-77.038 -72.577,-107.578c-30.541,-30.541 -66.4,-54.733 -107.578,-72.577c-41.178,-17.844 -84.759,-26.766 -130.741,-26.766c-46.669,0 -90.592,8.922 -131.77,26.766c-41.178,17.844 -77.038,42.036 -107.578,72.577c-30.541,30.541 -54.733,66.4 -72.577,107.578c-17.844,41.178 -26.766,84.759 -26.766,130.741Zm204.862,0c0,-18.53 3.432,-35.859 10.295,-51.988c6.863,-16.128 16.471,-30.197 28.825,-42.208c12.353,-12.01 26.594,-21.619 42.722,-28.825c16.128,-7.206 33.457,-10.809 51.988,-10.809c18.53,0 35.859,3.603 51.988,10.809c16.128,7.206 30.197,16.814 42.208,28.825c12.01,12.01 21.619,26.08 28.825,42.208c7.206,16.128 10.809,33.457 10.809,51.988c-0,18.53 -3.603,35.859 -10.809,51.988c-7.206,16.128 -16.814,30.369 -28.825,42.722c-12.01,12.353 -26.08,21.962 -42.208,28.825c-16.128,6.863 -33.457,10.295 -51.988,10.295c-18.53,0 -35.859,-3.432 -51.988,-10.295c-16.128,-6.863 -30.369,-16.471 -42.722,-28.825c-12.353,-12.353 -21.962,-26.594 -28.825,-42.722c-6.863,-16.128 -10.295,-33.457 -10.295,-51.988Z" style="fill:#fff;fill-rule:nonzero;"/></svg>