<?xml version="1.0" encoding="UTF-8" standalone="no"?><!DOCTYPE svg PUBLIC "-//W3C//DTD SVG 1.1//EN" "http://www.w3.org/Graphics/SVG/1.1/DTD/svg11.dtd"><svg width="100%" height="100%" viewBox="0 0 945 945" version="1.1" xmlns="http://www.w3.org/2000/svg" xmlns:xlink="http://www.w3.org/1999/xlink" xml:space="preserve" xmlns:serif="http://www.serif.com/" style="fill-rule:evenodd;clip-rule:evenodd;stroke-linecap:round;stroke-linejoin:round;stroke-miterlimit:1.5;"><rect x="0" y="0" width="944.882" height="944.882" style="stroke:#000;stroke-width:1px;"/><rect id="Artboard1" x="0" y="0" width="944.882" height="944.882" style="fill:none;"/><path d="M141.251,471.978c0,-45.703 8.646,-88.626 25.939,-128.77c17.293,-40.144 40.916,-75.193 70.87,-105.147c29.954,-29.954 65.157,-53.577 105.61,-70.87c40.453,-17.293 83.531,-25.939 129.234,-25.939c45.703,0 88.626,8.646 128.77,25.939c40.144,17.293 75.193,40.916 105.147,70.87c29.954,29.954 53.577,65.003 70.87,105.147c17.293,40.144 25.939,83.068 25.939,128.77c0,45.703 -8.646,88.781 -25.939,129.234c-17.293,40.453 -40.916,75.656 -70.87,105.61c-29.954,29.954 -65.003,53.577 -105.147,70.87c-40.144,17.293 -83.068,25.939 -128.77,25.939c-45.703,0 -88.781,-8.646 -129.234,-25.939c-40.453,-17.293 -75.656,-40.916 -105.61,-70.87c-29.954,-29.954 -53.577,-65.157 -70.87,-105.61c-17.293,-40.453 -25.939,-83.531 -25.939,-129.234Zm237.16,0c0,12.97 2.47,25.167 7.411,36.593c4.941,11.426 11.734,21.462 20.381,30.108c8.646,8.646 18.683,15.44 30.108,20.381c11.426,4.941 23.623,7.411 36.593,7.411c12.97,0 25.013,-2.47 36.13,-7.411c11.117,-4.941 20.999,-11.734 29.645,-20.381c8.646,-8.646 15.44,-18.683 20.381,-30.108c4.941,-11.426 7.411,-23.623 7.411,-36.593c0,-12.97 -2.47,-25.013 -7.411,-36.13c-4.941,-11.117 -11.734,-20.999 -20.381,-29.645c-8.646,-8.646 -18.528,-15.44 -29.645,-20.381c-11.117,-4.941 -23.16,-7.411 -36.13,-7.411c-12.97,0 -25.167,2.47 -36.593,7.411c-11.426,4.941 -21.462,11.734 -30.108,20.381c-8.646,8.646 -15.44,18.528 -20.381,29.645c-4.941,11.117 -7.411,23.16 -7.411,36.13Zm-210.294,0c0,41.997 8.029,81.524 24.087,118.58c16.058,37.056 37.828,69.326 65.312,96.809c27.483,27.483 59.753,49.254 96.809,65.312c37.056,16.058 76.583,24.087 118.58,24.087c41.379,0 80.597,-8.029 117.654,-24.087c37.056,-16.058 69.326,-37.828 96.809,-65.312c27.483,-27.483 49.254,-59.753 65.312,-96.809c16.058,-37.056 24.087,-76.583 24.087,-118.58c0,-41.379 -8.029,-80.597 -24.087,-117.654c-16.058,-37.056 -37.828,-69.326 -65.312,-96.809c-27.483,-27.483 -59.753,-49.254 -96.809,-65.312c-37.056,-16.058 -76.274,-24.087 -117.654,-24.087c-41.997,0 -81.524,8.029 -118.58,24.087c-37.056,16.058 -69.326,37.828 -96.809,65.312c-27.483,27.483 -49.254,59.753 -65.312,96.809c-16.058,37.056 -24.087,76.274 -24.087,117.654Zm184.355,0c0,-16.675 3.088,-32.27 9.264,-46.783c6.176,-14.514 14.822,-27.175 25.939,-37.983c11.117,-10.808 23.932,-19.455 38.446,-25.939c14.514,-6.485 30.108,-9.727 46.783,-9.727c16.675,0 32.27,3.242 46.783,9.727c14.514,6.485 27.175,15.131 37.983,25.939c10.808,10.808 19.455,23.469 25.939,37.983c6.485,14.514 9.727,30.108 9.727,46.783c0,16.675 -3.242,32.27 -9.727,46.783c-6.485,14.514 -15.131,27.329 -25.939,38.446c-10.808,11.117 -23.469,19.763 -37.983,25.939c-14.514,6.176 -30.108,9.264 -46.783,9.264c-16.675,0 -32.27,-3.088 -46.783,-9.264c-14.514,-6.176 -27.329,-14.822 -38.446,-25.939c-11.117,-11.117 -19.763,-23.932 -25.939,-38.446c-6.176,-14.514 -9.264,-30.108 -9.264,-46.783Z" style="fill:#fff;fill-rule:nonzero;"/></svg>