<?xml version="1.0" encoding="UTF-8" standalone="no"?><!DOCTYPE svg PUBLIC "-//W3C//DTD SVG 1.1//EN" "http://www.w3.org/Graphics/SVG/1.1/DTD/svg11.dtd"><svg width="100%" height="100%" viewBox="0 0 2842 296" version="1.1" xmlns="http://www.w3.org/2000/svg" xmlns:xlink="http://www.w3.org/1999/xlink" xml:space="preserve" xmlns:serif="http://www.serif.com/" style="fill-rule:evenodd;clip-rule:evenodd;stroke-linejoin:round;stroke-miterlimit:2;"><rect id="Artboard2" x="0" y="0" width="2841.768" height="295.49" style="fill:none;"/><g><path d="M6.399,148.345c0,-19.733 3.733,-38.267 11.2,-55.6c7.467,-17.333 17.667,-32.467 30.6,-45.4c12.933,-12.933 28.133,-23.133 45.6,-30.6c17.467,-7.467 36.067,-11.2 55.8,-11.2c19.733,0 38.267,3.733 55.6,11.2c17.333,7.467 32.467,17.667 45.4,30.6c12.933,12.933 23.133,28.067 30.6,45.4c7.467,17.333 11.2,35.867 11.2,55.6c0,19.733 -3.733,38.333 -11.2,55.8c-7.467,17.467 -17.667,32.667 -30.6,45.6c-12.933,12.933 -28.067,23.133 -45.4,30.6c-17.333,7.467 -35.867,11.2 -55.6,11.2c-19.733,0 -38.333,-3.733 -55.8,-11.2c-17.467,-7.467 -32.667,-17.667 -45.6,-30.6c-12.933,-12.933 -23.133,-28.133 -30.6,-45.6c-7.467,-17.467 -11.2,-36.067 -11.2,-55.8Zm102.4,0c0,5.6 1.067,10.867 3.2,15.8c2.133,4.933 5.067,9.267 8.8,13c3.733,3.733 8.067,6.667 13,8.8c4.933,2.133 10.2,3.2 15.8,3.2c5.6,0 10.8,-1.067 15.6,-3.2c4.8,-2.133 9.067,-5.067 12.8,-8.8c3.733,-3.733 6.667,-8.067 8.8,-13c2.133,-4.933 3.2,-10.2 3.2,-15.8c0,-5.6 -1.067,-10.8 -3.2,-15.6c-2.133,-4.8 -5.067,-9.067 -8.8,-12.8c-3.733,-3.733 -8,-6.667 -12.8,-8.8c-4.8,-2.133 -10,-3.2 -15.6,-3.2c-5.6,0 -10.867,1.067 -15.8,3.2c-4.933,2.133 -9.267,5.067 -13,8.8c-3.733,3.733 -6.667,8 -8.8,12.8c-2.133,4.8 -3.2,10 -3.2,15.6Zm-90.8,0c0,18.133 3.467,35.2 10.4,51.2c6.933,16 16.333,29.933 28.2,41.8c11.867,11.867 25.8,21.267 41.8,28.2c16,6.933 33.067,10.4 51.2,10.4c17.867,0 34.8,-3.467 50.8,-10.4c16,-6.933 29.933,-16.333 41.8,-28.2c11.867,-11.867 21.267,-25.8 28.2,-41.8c6.933,-16 10.4,-33.067 10.4,-51.2c0,-17.867 -3.467,-34.8 -10.4,-50.8c-6.933,-16 -16.333,-29.933 -28.2,-41.8c-11.867,-11.867 -25.8,-21.267 -41.8,-28.2c-16,-6.933 -32.933,-10.4 -50.8,-10.4c-18.133,0 -35.2,3.467 -51.2,10.4c-16,6.933 -29.933,16.333 -41.8,28.2c-11.867,11.867 -21.267,25.8 -28.2,41.8c-6.933,16 -10.4,32.933 -10.4,50.8Zm79.6,0c0,-7.2 1.333,-13.933 4,-20.2c2.667,-6.267 6.4,-11.733 11.2,-16.4c4.8,-4.667 10.333,-8.4 16.6,-11.2c6.267,-2.8 13,-4.2 20.2,-4.2c7.2,0 13.933,1.4 20.2,4.2c6.267,2.8 11.733,6.533 16.4,11.2c4.667,4.667 8.4,10.133 11.2,16.4c2.8,6.267 4.2,13 4.2,20.2c-0,7.2 -1.4,13.933 -4.2,20.2c-2.8,6.267 -6.533,11.8 -11.2,16.6c-4.667,4.8 -10.133,8.533 -16.4,11.2c-6.267,2.667 -13,4 -20.2,4c-7.2,0 -13.933,-1.333 -20.2,-4c-6.267,-2.667 -11.8,-6.4 -16.6,-11.2c-4.8,-4.8 -8.533,-10.333 -11.2,-16.6c-2.667,-6.267 -4,-13 -4,-20.2Z" style="fill-rule:nonzero;"/><path d="M466.799,106.345l158.4,-102.4l0,279.6l-11.6,0l0,-146l-146.8,96.4l-146.8,-96.4l0,146l-11.6,0l0,-279.6l158.4,102.4Zm-146.8,-81.2l0,98.8l146.8,96.4l146.8,-96.4l0,-98.8l-146.8,94.4l-146.8,-94.4Z" style="fill-rule:nonzero;"/><path d="M882.799,13.545l0,11.6l-133.2,0l0,25.6l133.2,0l0,11.2l-133.2,0l0,221.6l-100.8,0l0,-270l234,0Zm-222.4,48.4l0,210l77.2,0l0,-210l-77.2,0Zm0,-36.8l0,25.6l77.2,0l0,-25.6l-77.2,0Z" style="fill-rule:nonzero;"/><path d="M1072.769,218.345c-10.267,0 -19.767,-1.767 -28.5,-5.3c-8.733,-3.533 -16.333,-8.5 -22.8,-14.9c-6.467,-6.4 -11.5,-13.867 -15.1,-22.4c-3.6,-8.533 -5.4,-17.867 -5.4,-28c0,-10.133 1.8,-19.467 5.4,-28c3.6,-8.533 8.633,-16 15.1,-22.4c6.467,-6.4 14.067,-11.367 22.8,-14.9c8.733,-3.533 18.233,-5.3 28.5,-5.3c10.267,0 19.767,1.767 28.5,5.3c8.733,3.533 16.333,8.5 22.8,14.9c6.467,6.4 11.5,13.867 15.1,22.4c3.6,8.533 5.4,17.867 5.4,28c0,10.133 -1.8,19.467 -5.4,28c-3.6,8.533 -8.633,16 -15.1,22.4c-6.467,6.4 -14.067,11.367 -22.8,14.9c-8.733,3.533 -18.233,5.3 -28.5,5.3Zm0,-3.8c9.6,0 18.533,-1.667 26.8,-5c8.267,-3.333 15.467,-8.033 21.6,-14.1c6.133,-6.067 10.9,-13.133 14.3,-21.2c3.4,-8.067 5.1,-16.9 5.1,-26.5c0,-9.6 -1.7,-18.433 -5.1,-26.5c-3.4,-8.067 -8.167,-15.133 -14.3,-21.2c-6.133,-6.067 -13.333,-10.767 -21.6,-14.1c-8.267,-3.333 -17.2,-5 -26.8,-5c-9.6,0 -18.533,1.667 -26.8,5c-8.267,3.333 -15.467,8.033 -21.6,14.1c-6.133,6.067 -10.9,13.133 -14.3,21.2c-3.4,8.067 -5.1,16.9 -5.1,26.5c0,9.6 1.7,18.433 5.1,26.5c3.4,8.067 8.167,15.133 14.3,21.2c6.133,6.067 13.333,10.767 21.6,14.1c8.267,3.333 17.2,5 26.8,5Z" style="fill-rule:nonzero;"/><path d="M1201.569,217.745l0,-140l4,0l0,136.2l83.4,0l0,3.8l-87.4,0Z" style="fill-rule:nonzero;"/><path d="M1336.169,217.745l0,-140l53,0c14.8,0 27.733,3.033 38.8,9.1c11.067,6.067 19.667,14.367 25.8,24.9c6.133,10.533 9.2,22.533 9.2,36c0,13.467 -3.067,25.467 -9.2,36c-6.133,10.533 -14.733,18.833 -25.8,24.9c-11.067,6.067 -24,9.1 -38.8,9.1l-53,0Zm4,-3.8l48.6,0c14.267,0 26.667,-2.867 37.2,-8.6c10.533,-5.733 18.667,-13.567 24.4,-23.5c5.733,-9.933 8.6,-21.3 8.6,-34.1c0,-12.8 -2.867,-24.167 -8.6,-34.1c-5.733,-9.933 -13.867,-17.767 -24.4,-23.5c-10.533,-5.733 -22.933,-8.6 -37.2,-8.6l-48.6,0l0,132.4Z" style="fill-rule:nonzero;"/><path d="M1588.569,217.745l0,-140l3.4,0l66.6,116.4l-1.8,0l66.4,-116.4l3.4,0l0,140l-4,0l0,-134.2l1.6,0l-65.4,114.4l-2.4,0l-65.6,-114.4l1.8,0l0,134.2l-4,0Z" style="fill-rule:nonzero;"/><path d="M1773.569,217.745l65,-140l4,0l65,140l-4.6,0l-63.4,-136.8l2,0l-63.4,136.8l-4.6,0Zm21.4,-42.2l2,-3.8l87,0l2,3.8l-91,0Z" style="fill-rule:nonzero;"/><path d="M1954.569,217.745l0,-140l3.4,0l104.8,135.4l-2.2,0l0,-135.4l4,0l0,140l-3.4,0l-104.8,-135.4l2.2,0l0,135.4l-4,0Z" style="fill-rule:nonzero;"/><path d="M2204.969,217.745l0,-140l90.2,0l0,3.8l-86.2,0l0,136.2l-4,0Zm3,-65.2l0,-3.8l78.2,0l0,3.8l-78.2,0Z" style="fill-rule:nonzero;"/><path d="M2402.169,218.345c-16.667,0 -29.833,-4.933 -39.5,-14.8c-9.667,-9.867 -14.5,-24.667 -14.5,-44.4l0,-81.4l4,0l0,81.2c0,18.667 4.367,32.6 13.1,41.8c8.733,9.2 21.033,13.8 36.9,13.8c15.867,0 28.167,-4.6 36.9,-13.8c8.733,-9.2 13.1,-23.133 13.1,-41.8l0,-81.2l4,0l0,81.4c0,19.733 -4.833,34.533 -14.5,44.4c-9.667,9.867 -22.833,14.8 -39.5,14.8Z" style="fill-rule:nonzero;"/><path d="M2526.769,217.745l0,-140l3.4,0l104.8,135.4l-2.2,0l0,-135.4l4,0l0,140l-3.4,0l-104.8,-135.4l2.2,0l0,135.4l-4,0Z" style="fill-rule:nonzero;"/><path d="M2708.569,217.745l0,-140l53,0c14.8,0 27.733,3.033 38.8,9.1c11.067,6.067 19.667,14.367 25.8,24.9c6.133,10.533 9.2,22.533 9.2,36c0,13.467 -3.067,25.467 -9.2,36c-6.133,10.533 -14.733,18.833 -25.8,24.9c-11.067,6.067 -24,9.1 -38.8,9.1l-53,0Zm4,-3.8l48.6,0c14.267,0 26.667,-2.867 37.2,-8.6c10.533,-5.733 18.667,-13.567 24.4,-23.5c5.733,-9.933 8.6,-21.3 8.6,-34.1c0,-12.8 -2.867,-24.167 -8.6,-34.1c-5.733,-9.933 -13.867,-17.767 -24.4,-23.5c-10.533,-5.733 -22.933,-8.6 -37.2,-8.6l-48.6,0l0,132.4Z" style="fill-rule:nonzero;"/></g></svg>