<?xml version="1.0" encoding="UTF-8" standalone="no"?><!DOCTYPE svg PUBLIC "-//W3C//DTD SVG 1.1//EN" "http://www.w3.org/Graphics/SVG/1.1/DTD/svg11.dtd"><svg width="100%" height="100%" viewBox="0 0 7826 5400" version="1.1" xmlns="http://www.w3.org/2000/svg" xmlns:xlink="http://www.w3.org/1999/xlink" xml:space="preserve" xmlns:serif="http://www.serif.com/" style="fill-rule:evenodd;clip-rule:evenodd;stroke-linejoin:round;stroke-miterlimit:2;"><rect id="Artboard1" x="0" y="0" width="7825.591" height="5399.729" style="fill:none;"/><clipPath id="_clip1"><rect x="0" y="0" width="7825.591" height="5399.729"/></clipPath><g clip-path="url(#_clip1)"><g><g><path d="M2.781,10.178c0,19.669 145.785,314.71 163.14,329.751c3.471,3.471 18.512,26.611 33.554,52.066c15.041,25.454 40.496,59.008 54.38,75.206c15.041,16.198 26.611,32.397 26.611,35.868c0,3.471 10.413,19.669 24.297,34.711c12.727,15.041 50.909,59.008 83.306,97.19c149.256,173.553 364.462,374.875 592.395,553.056c6.942,4.628 24.297,18.512 39.339,31.24c15.041,12.727 31.24,23.14 34.711,23.14c3.471,0 20.826,11.57 35.868,25.454c41.653,37.025 83.306,65.95 301.983,211.735c202.479,134.215 205.95,137.686 288.098,186.28c28.926,17.355 59.008,39.339 67.107,47.438c8.099,8.099 20.826,15.041 26.611,15.041c8.099,0 124.958,65.95 183.966,104.132c9.256,6.942 30.083,18.512 46.281,25.454c41.653,20.826 273.057,160.826 341.321,207.107c196.694,131.9 445.453,357.52 520.66,469.751c31.24,47.438 52.066,62.479 52.066,37.025c0,-15.041 -47.438,-101.818 -65.95,-123.801c-8.099,-8.099 -15.041,-20.826 -15.041,-26.611c0,-12.727 -69.421,-126.115 -90.248,-148.099c-8.099,-9.256 -24.297,-30.083 -34.711,-46.281c-31.24,-47.438 -69.421,-90.248 -187.438,-209.421c-142.314,-141.157 -158.512,-153.884 -358.677,-303.14c-92.562,-68.264 -172.396,-128.429 -179.338,-134.215c-5.785,-4.628 -32.397,-21.983 -57.851,-37.025c-25.454,-15.041 -48.595,-31.24 -52.066,-34.711c-3.471,-3.471 -26.611,-19.669 -52.066,-34.711c-25.454,-15.041 -98.347,-61.322 -161.983,-102.975c-128.429,-84.463 -150.413,-98.347 -187.438,-118.016c-15.041,-8.099 -26.611,-18.512 -26.611,-24.297c0,-4.628 -5.785,-9.256 -11.57,-9.256c-6.942,0 -34.711,-16.198 -61.322,-35.868c-45.124,-32.397 -183.966,-130.743 -231.404,-163.14c-12.727,-8.099 -32.397,-24.297 -45.124,-35.868c-13.884,-10.413 -27.769,-19.669 -31.24,-19.669c-3.471,0 -19.669,-11.57 -35.868,-26.611c-16.198,-13.884 -61.322,-50.909 -100.661,-80.992c-39.339,-30.083 -78.677,-61.322 -86.777,-69.421c-8.099,-8.099 -43.967,-37.025 -78.677,-64.793c-149.256,-116.859 -658.345,-605.122 -709.254,-680.329c-21.983,-32.397 -54.38,-52.066 -54.38,-32.397Z" style="fill:#da1b1b;fill-rule:nonzero;"/><path d="M2146.4,1165.432c-9.256,9.256 3.471,50.909 15.041,50.909c5.785,0 10.413,5.785 10.413,13.884c0,17.355 83.306,183.966 101.818,203.636c6.942,8.099 13.884,19.669 13.884,25.454c0,15.041 99.504,158.512 148.099,212.892c115.702,129.586 326.28,325.123 407.272,378.346c16.198,10.413 45.124,33.554 63.636,49.752c19.669,17.355 55.537,45.124 80.992,62.479c25.454,17.355 56.694,40.496 68.264,50.909c12.727,11.57 43.967,34.711 69.421,52.066c26.611,18.512 57.851,41.653 69.421,52.066c12.727,11.57 43.967,34.711 69.421,52.066c26.611,17.355 49.752,34.711 53.223,38.182c3.471,3.471 42.81,34.711 86.777,69.421c45.124,34.711 86.777,68.264 93.719,75.206c6.942,5.785 53.223,47.438 102.975,92.562c168.925,151.57 298.512,292.726 377.189,410.743c76.363,115.702 106.446,166.611 174.71,298.512c35.868,71.735 89.091,166.611 115.702,211.735c27.769,45.124 62.479,102.975 77.52,129.586c15.041,26.611 34.711,55.537 43.967,63.636c8.099,8.099 15.041,20.826 15.041,26.611c0,5.785 5.785,17.355 11.57,25.454c6.942,8.099 61.322,89.091 122.644,181.652c195.537,296.198 463.966,532.23 727.767,637.519c124.958,49.752 386.445,69.421 728.924,54.38c238.346,-9.256 511.404,-2.314 558.841,15.041c15.041,5.785 48.595,10.413 75.206,10.413c26.611,1.157 69.421,8.099 94.876,17.355c25.454,9.256 56.694,17.355 69.421,17.355c12.727,0 38.182,8.099 56.694,17.355c17.355,9.256 40.496,17.355 49.752,17.355c18.512,0 82.149,27.769 229.09,99.504c211.735,105.289 382.974,230.247 563.47,411.9c120.33,121.487 124.958,124.958 131.9,94.876c9.256,-35.868 -2.314,-158.512 -17.355,-186.28c-5.785,-11.57 -23.14,-47.438 -38.182,-78.677c-28.926,-64.793 -83.306,-142.314 -164.297,-236.032c-31.24,-38.182 -53.223,-75.206 -53.223,-91.405c0,-47.438 -45.124,-121.487 -98.347,-160.826c-67.107,-49.752 -273.057,-153.884 -304.297,-153.884c-5.785,0 -26.611,-8.099 -43.967,-17.355c-18.512,-9.256 -42.81,-17.355 -54.38,-17.355c-10.413,0 -28.926,-4.628 -40.496,-10.413c-10.413,-5.785 -59.008,-21.983 -106.446,-35.868c-158.512,-47.438 -260.33,-83.306 -296.198,-105.289c-38.182,-23.14 -74.049,-83.306 -74.049,-123.801c0,-30.083 43.967,-166.611 57.851,-180.495c6.942,-6.942 11.57,-19.669 11.57,-28.926c0,-10.413 6.942,-32.397 16.198,-49.752c9.256,-16.198 21.983,-67.107 30.083,-112.231c38.182,-224.462 -83.306,-367.933 -474.379,-563.47c-52.066,-25.454 -146.942,-68.264 -190.909,-86.777c-12.727,-4.628 -47.438,-19.669 -77.52,-32.397c-30.083,-13.884 -62.479,-24.297 -71.735,-24.297c-9.256,0 -20.826,-5.785 -24.297,-11.57c-3.471,-6.942 -15.041,-11.57 -25.454,-11.57c-9.256,0 -33.554,-6.942 -53.223,-16.198c-20.826,-9.256 -120.33,-43.967 -222.148,-76.363c-101.818,-33.554 -193.223,-64.793 -203.636,-69.421c-10.413,-5.785 -39.339,-13.884 -63.636,-18.512c-25.454,-3.471 -49.752,-11.57 -56.694,-16.198c-5.785,-4.628 -30.083,-12.727 -52.066,-16.198c-21.983,-4.628 -50.909,-12.727 -63.636,-18.512c-12.727,-4.628 -46.281,-15.041 -75.206,-23.14c-28.926,-6.942 -72.892,-18.512 -98.347,-24.297c-25.454,-6.942 -56.694,-17.355 -69.421,-21.983c-12.727,-5.785 -41.653,-13.884 -63.636,-18.512c-21.983,-3.471 -47.438,-11.57 -57.851,-16.198c-9.256,-4.628 -56.694,-20.826 -104.132,-34.711c-47.438,-13.884 -94.876,-28.926 -104.132,-33.554c-10.413,-5.785 -35.868,-13.884 -57.851,-18.512c-21.983,-4.628 -45.124,-11.57 -52.066,-16.198c-5.785,-4.628 -50.909,-20.826 -98.347,-35.868c-47.438,-13.884 -91.405,-30.083 -98.347,-34.711c-5.785,-4.628 -45.124,-19.669 -86.777,-34.711c-41.653,-15.041 -79.834,-31.24 -85.62,-37.025c-6.942,-4.628 -18.512,-9.256 -27.769,-9.256c-23.14,0 -131.9,-49.752 -407.272,-183.966c-193.223,-94.876 -371.404,-192.066 -410.743,-223.305c-5.785,-4.628 -53.223,-35.868 -104.132,-69.421c-50.909,-33.554 -97.19,-64.793 -104.132,-69.421c-5.785,-4.628 -60.165,-45.124 -120.33,-90.248c-209.421,-156.198 -513.718,-448.924 -642.147,-619.007c-24.297,-32.397 -45.124,-59.008 -46.281,-61.322c-2.314,-1.157 -5.785,1.157 -9.256,4.628Zm5174.201,3505.776c118.016,39.339 156.198,69.421 183.966,140c27.769,68.264 -18.512,84.463 -75.206,25.454c-18.512,-19.669 -52.066,-46.281 -74.049,-60.165c-21.983,-13.884 -47.438,-31.24 -55.537,-39.339c-8.099,-8.099 -21.983,-15.041 -31.24,-15.041c-15.041,0 -28.926,-24.297 -28.926,-53.223c0,-20.826 16.198,-20.826 80.992,2.314Zm-6004.943,-2776.852c-0,12.727 98.347,207.107 115.702,227.933c6.942,8.099 31.24,39.339 54.38,71.735c84.463,113.388 216.363,248.76 392.23,399.172c43.967,38.182 164.297,128.429 202.479,152.727c16.198,10.413 37.025,26.611 46.281,34.711c9.256,9.256 37.025,28.926 62.479,43.967c25.454,15.041 48.595,31.24 52.066,34.711c6.942,9.256 348.264,211.735 457.024,271.9c85.62,48.595 178.181,94.876 503.304,253.388c190.909,93.719 226.776,112.231 366.776,196.694c105.289,63.636 274.214,195.537 358.677,279.999c47.438,47.438 87.934,85.62 90.248,85.62c3.471,0 -1.157,-12.727 -8.099,-28.926c-6.942,-16.198 -17.355,-28.926 -23.14,-28.926c-4.628,0 -9.256,-6.942 -9.256,-15.041c0,-9.256 -10.413,-28.926 -23.14,-43.967c-12.727,-15.041 -26.611,-33.554 -31.24,-39.339c-84.463,-111.074 -153.884,-178.181 -366.776,-358.677c-28.926,-25.454 -219.834,-155.041 -308.925,-210.578c-70.578,-45.124 -212.892,-124.958 -357.52,-202.479c-34.711,-19.669 -68.264,-39.339 -75.206,-43.967c-10.413,-8.099 -60.165,-34.711 -225.619,-124.958c-104.132,-55.537 -367.933,-218.677 -410.743,-253.388c-5.785,-5.785 -32.397,-23.14 -57.851,-38.182c-25.454,-15.041 -50.909,-32.397 -57.851,-37.025c-5.785,-4.628 -68.264,-50.909 -138.843,-102.975c-69.421,-52.066 -129.586,-98.347 -133.057,-101.818c-3.471,-4.628 -31.24,-27.769 -63.636,-52.066c-64.793,-48.595 -148.099,-124.958 -303.14,-277.685c-59.008,-57.851 -107.603,-99.504 -107.603,-92.562Zm1314.377,2072.226c-11.57,11.57 182.809,192.066 311.239,288.098c63.636,47.438 121.487,90.248 127.272,94.876c30.083,23.14 134.215,83.306 143.471,83.306c5.785,0 18.512,6.942 26.611,13.884c8.099,8.099 33.554,23.14 55.537,34.711c153.884,72.892 219.834,101.818 236.032,101.818c9.256,0 19.669,4.628 23.14,9.256c9.256,15.041 373.718,129.586 414.214,129.586c11.57,0 30.083,4.628 41.653,11.57c10.413,5.785 42.81,16.198 71.735,21.983c100.661,21.983 156.198,35.868 179.338,46.281c12.727,5.785 62.479,21.983 109.917,37.025c47.438,15.041 91.405,30.083 98.347,35.868c5.785,4.628 17.355,9.256 26.611,9.256c9.256,0 32.397,6.942 52.066,16.198c189.752,82.149 240.661,101.818 247.603,96.033c3.471,-4.628 -8.099,-19.669 -26.611,-33.554c-28.926,-23.14 -79.834,-68.264 -189.752,-171.239c-17.355,-16.198 -48.595,-43.967 -69.421,-62.479c-57.851,-49.752 -300.826,-230.247 -352.892,-261.487c-25.454,-15.041 -48.595,-31.24 -52.066,-34.711c-3.471,-4.628 -13.884,-11.57 -23.14,-16.198c-9.256,-4.628 -48.595,-25.454 -86.777,-47.438c-71.735,-41.653 -218.677,-114.545 -300.826,-149.256c-25.454,-10.413 -54.38,-24.297 -63.636,-28.926c-10.413,-5.785 -34.711,-13.884 -55.537,-17.355c-19.669,-4.628 -39.339,-13.884 -42.81,-19.669c-4.628,-5.785 -18.512,-10.413 -32.397,-10.413c-25.454,1.157 -25.454,1.157 -2.314,13.884c12.727,6.942 25.454,16.198 28.926,20.826c3.471,3.471 28.926,20.826 57.851,38.182c61.322,35.868 173.553,135.372 173.553,153.884c0,6.942 -8.099,19.669 -17.355,27.769c-13.884,11.57 -47.438,10.413 -167.768,-4.628c-83.306,-10.413 -163.14,-24.297 -177.024,-30.083c-13.884,-4.628 -54.38,-18.512 -89.091,-28.926c-180.495,-54.38 -543.8,-255.702 -649.089,-358.677c-10.413,-9.256 -21.983,-13.884 -26.611,-9.256Z" style="fill:#da1b1b;fill-rule:nonzero;"/></g></g></g></svg>