<svg width="80" height="80" viewBox="0 0 80 80" fill="none" xmlns="http://www.w3.org/2000/svg">
<path d="M71.2671 2.57064C72.1898 2.56211 73.1146 2.56318 74.0394 2.56744C74.0415 2.69758 74.0447 2.96104 74.0468 3.09118C73.6895 3.10398 73.3343 3.11464 72.9802 3.12531C72.993 4.01171 72.9823 4.89917 72.9802 5.78557C72.7626 5.78877 72.545 5.79091 72.3306 5.79517C72.322 4.90344 72.3306 4.01278 72.3274 3.12211C71.9775 3.11678 71.6276 3.11464 71.2788 3.11678C71.2767 2.98131 71.2692 2.70931 71.2671 2.57064Z" fill="white"/>
<path d="M23.2109 69.7323C23.7058 69.7248 24.221 69.7035 24.6509 69.9947C24.7682 70.528 25.021 71.152 24.6327 71.6374C24.3085 72.1003 23.7047 72.08 23.2034 72.1088C23.1639 71.3174 23.213 70.5248 23.2109 69.7323Z" fill="white"/>
<path d="M74.5483 2.61126C74.9313 2.59313 75.3131 2.57286 75.6982 2.56433C75.9499 3.30779 76.2059 4.04913 76.4907 4.78193C76.8011 4.05979 77.0529 3.31526 77.3089 2.57286C77.6225 2.57073 77.9339 2.56539 78.2518 2.56006C78.2625 3.63526 78.255 4.70939 78.255 5.78459C78.1046 5.78779 77.8049 5.79419 77.6545 5.79739C77.6438 4.95793 77.6491 4.11953 77.647 3.28219C77.3313 4.10673 77.0593 4.94726 76.7766 5.78246C76.5953 5.78566 76.4161 5.79099 76.2379 5.79739C75.9691 5.02299 75.7281 4.24113 75.4145 3.48486C75.3078 4.24646 75.3675 5.01553 75.3633 5.78033C75.0934 5.78566 74.8267 5.78246 74.5601 5.77499C74.5611 4.72006 74.5825 3.66513 74.5483 2.61126Z" fill="white"/>
<path d="M3.47314 6.68797C4.18248 6.5141 4.89501 6.7317 5.60754 6.76797C6.87688 6.86717 8.14941 6.74023 9.41981 6.68263C10.143 6.6517 10.8598 6.80637 11.583 6.7989C13.455 6.71143 15.3291 6.6197 17.2033 6.72103C19.439 6.7829 21.679 6.51197 23.9115 6.72103C25.7846 6.8789 27.6545 6.52903 29.5297 6.65917C32.8043 6.81917 36.0886 6.5973 39.359 6.88743C40.6177 6.9813 41.8785 6.87997 43.1382 6.94503C45.5009 7.07197 47.8571 6.73703 50.2198 6.74343C51.9649 6.7541 53.7238 6.56743 55.4571 6.84263C56.1067 6.9621 56.7521 6.80637 57.3899 6.70077C58.2603 6.5557 59.1467 6.61543 60.0267 6.6357C61.4614 6.68477 62.8971 6.54503 64.3297 6.6901C66.2774 6.8693 68.2326 6.68797 70.1803 6.58663C70.4321 6.5653 70.6859 6.5941 70.9366 6.63037C70.0321 7.07303 69.0827 7.41223 68.1547 7.8005C66.3073 8.64423 64.2465 8.87783 62.383 9.67037C61.5041 10.5376 60.1729 10.129 59.0795 10.3029C57.7046 10.5493 56.3062 10.3861 54.9227 10.4789C54.1942 10.5429 53.4806 10.3189 52.7542 10.3701C48.2187 10.5184 43.6811 10.4373 39.1435 10.4576C28.4609 10.4469 17.7761 10.416 7.09234 10.4469C7.08381 10.7221 7.04114 10.9941 7.04754 11.2704C7.10408 14.656 7.01128 18.0416 7.10194 21.4261C7.10941 21.8304 7.02088 22.2282 6.93874 22.6218C5.86354 21.9776 4.55368 22.1141 3.36114 22.2261C3.18194 20.3904 3.38141 18.5504 3.41021 16.7136C3.51901 14.9621 3.28648 13.2117 3.38674 11.4602C3.42834 10.7296 3.40701 9.99677 3.31741 9.27143C3.20114 8.4053 3.37928 7.54343 3.47314 6.68797Z" fill="white"/>
<path d="M73.9637 7.69294C75.44 7.3644 76.8779 6.82254 78.3989 6.72974C78.0853 7.64707 77.3472 8.33507 77.0293 9.25027C76.6379 10.3383 76.2528 11.4412 75.6821 12.4492C75.3355 13.1255 74.5141 13.1927 73.9232 13.5532C73.3408 13.918 72.6336 13.7943 71.9904 13.9052C70.9333 14.0993 69.9648 14.6156 68.9088 14.8087C68.0875 14.9687 67.248 15.0177 66.4331 15.2097C63.7269 16.0343 60.9856 16.7457 58.2165 17.3228C58.2507 17.3676 58.32 17.4625 58.3541 17.5073C56.0107 18.1207 53.6576 18.6913 51.3003 19.246C47.6352 20.3127 43.8229 20.8268 40.2037 22.0545C42.9856 22.0023 45.6917 21.262 48.4245 20.8119C49.0069 20.6977 49.632 20.9175 50.1835 20.638C50.8832 20.3191 51.6523 20.2295 52.4032 20.1025C53.9659 19.8412 55.488 19.1724 57.0987 19.4103C59.3653 18.6209 61.7685 18.3244 64.1547 18.1484C65.5488 18.0065 66.9835 18.0161 68.32 17.5297C68.2869 17.4775 68.224 17.374 68.1909 17.3207C68.7563 17.2588 69.3259 17.2087 69.8923 17.1233C71.1072 16.9623 72.2464 16.3959 73.4923 16.4364C73.5008 17.1233 73.3259 17.806 72.8757 18.3383C72.3371 19.0071 72.0939 19.8412 71.6587 20.5708C71.3013 21.2385 70.1877 21.1852 70.1067 22.0375C70.0341 22.8097 69.6299 23.8167 68.7467 23.8967C65.8773 23.7463 63.0453 24.3575 60.1888 24.51C58.6944 24.5804 57.1968 24.5431 55.7045 24.6497C55.4411 24.6583 55.1765 24.7255 54.9931 24.9239C54.7989 24.6881 54.5792 24.4737 54.3712 24.2551C54.2283 24.5143 54.0843 24.7756 53.9509 25.0423C53.4827 25.0945 53.0133 25.1383 52.5525 25.2311C51.1285 25.5287 49.6672 25.5052 48.2219 25.5415C46.3435 25.5575 44.4683 25.774 42.5877 25.6865C42.1653 25.6609 41.7483 25.7431 41.3397 25.8391C41.3472 25.95 41.36 26.1687 41.3675 26.2796C42.6784 26.2156 43.9787 26.3852 45.2832 26.4876C45.3589 26.5569 45.5136 26.6945 45.5893 26.7628C46.3477 26.6828 47.1072 26.5164 47.8741 26.5964C49.4432 26.7468 51.0005 26.2049 52.5675 26.4801C53.4229 26.6327 54.2592 26.2732 55.1157 26.366C56.0096 26.4929 56.9131 26.2156 57.8016 26.4257C58.768 26.6337 59.7568 26.5217 60.7317 26.4513C61.3525 26.3756 61.9253 26.6903 62.5323 26.7329C63.1381 26.6636 63.7312 26.3831 64.3509 26.4844C65.8091 26.8833 67.2235 26.0545 68.6944 26.1708C68.6816 26.3649 68.6656 26.5591 68.6432 26.7532C68.2656 27.2609 67.6981 27.678 67.5765 28.3329C67.4389 28.9911 67.2501 29.6364 66.9931 30.2604C66.9461 30.2455 66.848 30.2145 66.7989 30.2007C66.3765 31.1287 65.7973 32.2007 64.7083 32.4225C63.9808 32.4257 63.2597 32.2871 62.5355 32.2433C61.7248 32.1868 60.9845 31.8231 60.1995 31.6556C59.5371 31.5159 58.8608 31.6865 58.1952 31.6225C57.6949 31.5681 57.216 31.4028 56.7232 31.3143C56.0107 31.1841 55.2832 31.4049 54.5728 31.2524C53.4155 30.9932 52.2101 31.0188 51.0987 30.574C50.3829 30.6145 49.6555 30.7351 48.9515 30.5217C47.9381 30.2263 46.8587 30.3671 45.8507 30.0577C44.7957 29.7313 43.68 29.8017 42.6005 29.6279C42.3232 29.5703 42.1237 29.8433 41.8912 29.9415C42.8288 30.5505 43.9819 30.4801 45.0101 30.8172C45.5285 30.9719 45.8517 31.4305 46.2635 31.7495C47.2715 31.4305 48.2944 31.8092 49.3205 31.7857C50.3285 31.9649 51.3013 32.334 52.3328 32.4023L52.2389 32.6071C53.5541 32.7777 54.8779 32.9207 56.1664 33.2364C56.6795 33.3452 57.0731 33.7025 57.3856 34.1089C58.6731 33.7623 59.9787 34.1633 61.2395 34.4279C62.1248 34.6369 63.0784 34.3916 63.92 34.8119C63.8432 35.8401 63.0453 36.5601 62.544 37.3975C62.3477 37.7516 62.0128 37.9692 61.6224 38.0535C61.6864 38.3777 61.8741 38.7351 61.6533 39.0433C61.1925 39.9031 60.8896 40.8769 60.2176 41.6044C59.6459 41.6588 59.1061 41.3452 58.5813 41.1585C57.6043 40.6743 56.5632 40.35 55.5307 40.0087L55.6245 39.7836C54.7541 39.1468 53.632 39.1617 52.7104 38.6465C51.9339 38.238 51.0165 38.2017 50.2645 37.7399C49.7984 37.4604 49.2704 37.3281 48.7467 37.2108C48.0085 37.0753 47.5029 36.4471 46.7957 36.2337C46.2133 36.0481 45.6203 35.8999 45.0517 35.6801C43.9616 35.2631 42.7445 35.2161 41.7035 34.67C41.0485 34.1047 40.1621 33.9863 39.3387 33.8487C38.6059 33.87 37.8485 33.9393 37.1861 33.5553C38.2123 37.3708 38.9856 41.2449 39.9349 45.0796C40.3467 46.6849 40.6347 48.318 41.0432 49.9255C41.3408 51.2108 41.7397 52.4748 41.9605 53.7815C41.7035 53.9137 41.4453 54.046 41.1915 54.1825C41.5925 56.2903 42.1237 58.3703 42.5899 60.462C42.9707 62.1794 43.3333 63.902 43.5744 65.6449C43.6203 65.6161 43.7088 65.5575 43.7536 65.5287C43.8677 65.79 43.9893 66.0524 44.1088 66.3159C53.0293 66.318 61.9499 66.2711 70.8683 66.3393C70.8043 63.55 70.8555 60.7596 70.8107 57.9703C70.8032 47.4412 70.7957 36.9121 70.7744 26.3831C70.7957 25.4871 70.6816 24.5751 70.8651 23.6919C71.4325 22.3041 72.5984 21.2759 73.2555 19.9404C73.4475 19.5489 73.7088 19.1991 74.0021 18.878C74.4651 20.0535 74.0651 21.3079 74.1077 22.5228C74.0192 24.2839 74.4469 26.0151 74.4064 27.7761C74.4693 29.7377 73.9008 31.7207 74.4011 33.6631C74.4395 36.0257 74.416 38.3927 74.4032 40.7575C74.0747 45.6087 74.5771 50.4727 74.3797 55.3271C74.2581 56.4044 74.2123 57.4871 74.2581 58.5719C74.3456 61.4807 74.3776 64.3916 74.4053 67.3015C74.5376 70.1537 73.9701 72.99 74.1781 75.8412C74.2197 76.269 74.3723 76.6775 74.4704 77.0946C74.4597 77.182 74.4395 77.3559 74.4288 77.4423C65.5157 77.3676 56.5984 77.4295 47.6853 77.3207C45.4997 77.3111 43.3152 77.2044 41.1328 77.341C38.9547 77.4711 36.7659 77.4551 34.5973 77.2065C33.3312 77.0849 32.0715 77.3122 30.8085 77.341C26.1568 77.4338 21.504 77.4156 16.8544 77.3441C15.52 77.326 14.1867 77.23 12.8544 77.3047C9.71734 77.5617 6.57067 77.2706 3.42934 77.4082C3.42721 77.182 3.42721 76.9548 3.42721 76.7319C3.44747 73.4092 3.46347 70.0897 3.41441 66.7671C3.37494 64.7703 3.29067 62.7682 3.47201 60.7756C3.44641 59.934 3.25654 59.102 3.33014 58.2583C3.48267 56.6391 3.30987 55.0156 3.35787 53.3943C3.39201 51.8679 3.32907 50.3425 3.32161 48.8151C3.31094 47.422 3.50827 46.0332 3.43254 44.6401C3.30347 42.6039 3.38774 40.5612 3.28214 38.5249C3.32374 38.5089 3.40907 38.4801 3.45281 38.4631C4.19307 40.0097 4.16321 41.7473 4.66987 43.3591C4.76587 43.7239 4.85867 44.0897 4.94934 44.4567L5.12747 44.302C5.85067 46.5089 6.41707 48.7671 6.75201 51.0679C6.83947 51.9308 7.30561 52.7937 6.98454 53.6588C7.25441 54.5889 7.11681 55.5575 7.07734 56.5079C7.09227 59.7847 7.09547 63.0636 7.07201 66.3383C15.9488 66.2657 24.8256 66.3276 33.7024 66.3052C35.0336 66.2817 36.3669 66.4353 37.696 66.3137C37.3835 64.7105 36.9035 63.1457 36.6101 61.5372C36.4469 60.9911 36.5589 60.4311 36.5813 59.8785C36.4651 59.5756 36.1077 59.5009 35.8645 59.3399C35.4688 58.1687 35.4261 56.894 34.9376 55.7569C34.6859 55.7516 34.4352 55.7495 34.1845 55.7495C32.6069 48.9687 31.0368 42.1868 29.4443 35.4081C28.3669 35.4881 27.3301 35.8199 26.3179 36.1719C25.7973 36.6103 25.3781 37.1639 24.816 37.5553C24.1013 38.0663 23.648 38.8503 22.9333 39.3559C21.9083 41.5009 21.1531 43.7772 20.7808 46.1239C20.8821 46.9612 20.8405 47.8305 21.1435 48.6316C21.3301 49.1287 21.4251 49.6524 21.4283 50.1857C20.3296 50.3649 19.2373 50.5879 18.1536 50.8385C16.9227 51.3441 15.5712 51.4007 14.3168 51.8305C13.744 52.0247 13.1467 52.1292 12.5483 52.2188C12.5717 52.5121 12.5739 52.8087 12.5536 53.1052C11.2555 53.4007 9.96267 53.7196 8.66027 54.0012C8.37014 53.1927 8.25921 52.3361 8.04587 51.5063C7.83361 50.5559 7.49974 49.6161 7.51787 48.6305C7.59254 47.918 7.11574 47.3356 6.95787 46.6732C6.65494 45.4945 6.39894 44.3052 6.10561 43.1244C5.77601 41.7079 5.40907 40.3009 5.16801 38.8663L4.96534 38.9825C4.75521 37.8999 4.46081 36.8375 4.20587 35.7655C4.16107 35.1756 4.17707 34.5825 4.14827 33.9937C3.95627 33.7527 3.68747 33.5479 3.60001 33.2428C3.12321 30.8236 2.55681 28.4204 1.99681 26.0204C1.83681 25.4551 1.69067 24.8833 1.60107 24.3009C3.01227 24.0556 4.37014 23.5244 5.79521 23.3943C5.93707 23.7335 6.06721 24.078 6.17921 24.4279C7.17867 24.1868 8.18347 23.982 9.21494 23.982C10.6581 23.1873 12.3232 23.0348 13.9008 22.6604C14.9749 22.4193 16.0139 22.0215 17.1179 21.9308C19.7205 21.4252 22.2667 20.6689 24.8555 20.0972C25.1349 20.0097 25.4869 20.0481 25.7045 19.8199C25.552 19.2545 25.2896 18.7191 25.2459 18.1281C26.1888 17.934 27.1339 17.7495 28.0715 17.5329C28.0373 17.4881 27.968 17.4007 27.9339 17.3569C29.6661 17.0636 31.3536 16.5697 33.0645 16.1783C33.2043 16.8097 33.3077 17.4476 33.4432 18.0791C34.2645 18.0097 35.0613 17.7943 35.8464 17.5585C35.8283 17.5073 35.7888 17.406 35.7685 17.3569C36.6208 17.0455 37.5221 17.0231 38.4032 17.2215C38.6731 16.9644 38.9547 16.6807 39.3461 16.6316C41.1744 16.2903 42.8843 15.486 44.7371 15.2556C44.9856 15.3612 45.2064 15.5479 45.4805 15.5841C45.9008 15.3644 46.2688 15.0497 46.7104 14.8609C47.7675 14.4055 48.928 14.3255 50.0459 14.094C50.8597 13.9255 51.6 13.5159 52.4128 13.3324C54.3221 12.9175 56.2507 12.5783 58.1728 12.2295C59.1232 11.9233 60.0917 11.6652 61.0848 11.5479C62.2507 11.4295 63.3024 10.8876 64.4213 10.5836C65.3024 10.3404 66.1803 10.0844 67.0784 9.90734L66.944 9.75374C68.2112 9.42947 69.456 9.01347 70.6656 8.5164C71.7141 8.05667 72.8779 8.02467 73.9637 7.69294ZM5.13494 68.0481C5.14561 68.1729 5.16587 68.4257 5.17654 68.5505C5.68961 68.7553 5.84001 69.3377 6.01281 69.8071C6.53014 71.7036 7.21494 73.5532 7.67361 75.4668C8.01494 75.4647 8.35521 75.4636 8.69654 75.4615C9.03894 74.2306 9.40587 73.0028 9.83361 71.7964C10.2293 73.0092 10.5824 74.2359 10.9269 75.4636C11.264 75.4615 11.6032 75.4615 11.9403 75.4604C12.1792 74.5196 12.5365 73.614 12.7637 72.6711C12.816 72.686 12.9216 72.7148 12.9739 72.7308C13.2 71.8273 13.5637 70.9665 13.7483 70.0545C13.8784 69.4711 14.1024 68.8001 14.7136 68.5676C14.7371 68.3969 14.7605 68.2306 14.7829 68.0631C13.9925 68.0663 13.2011 68.0609 12.4107 68.0609C12.4267 68.2263 12.4437 68.3927 12.4597 68.5601C12.7605 68.6049 13.0709 68.6487 13.3429 68.7991C13.2075 69.374 13.0368 69.9447 12.9771 70.5367C12.9248 70.5111 12.8171 70.4588 12.7648 70.4311C12.4821 71.4828 12.1504 72.5217 11.7931 73.5521C11.2 71.9799 10.7051 70.3639 10.3947 68.7116C10.6027 68.6487 10.8117 68.5879 11.0219 68.5303C11.0347 68.4129 11.0581 68.1729 11.0709 68.0535C10.1803 68.0695 9.28961 68.0716 8.40001 68.0481C8.40321 68.1751 8.40854 68.4311 8.41281 68.558C8.50561 68.5857 8.69014 68.6433 8.78294 68.6721C9.09334 69.2748 9.31627 69.918 9.46347 70.5804C9.16481 71.5724 8.86507 72.5666 8.52054 73.5415C7.97441 71.9511 7.39094 70.3244 7.23841 68.6412C7.37067 68.6156 7.63734 68.5633 7.76961 68.5377C7.76427 68.4129 7.74934 68.1644 7.74401 68.0396C6.87361 68.0801 6.00321 68.0748 5.13494 68.0481ZM67.0549 69.0508C67.0571 69.2481 67.0624 69.4476 67.0688 69.6492C67.3195 69.6823 67.5733 69.7186 67.8272 69.7559C67.8123 71.4466 67.952 73.1468 67.7632 74.83C67.5307 74.8482 67.3003 74.8663 67.072 74.8865C67.0667 75.0241 67.0539 75.3015 67.0485 75.4391C68.0021 75.4156 68.9579 75.4028 69.9136 75.4465C69.904 75.2577 69.8976 75.0711 69.8923 74.8865C69.6544 74.8609 69.4208 74.8343 69.1872 74.8087C69.12 74.078 69.1019 73.3431 69.1221 72.6113C69.2075 72.6348 69.376 72.6817 69.4592 72.7041C69.9883 73.6204 70.5216 74.5335 71.0464 75.4519C71.6011 75.4551 72.1557 75.4551 72.7125 75.454C72.7104 75.3271 72.704 75.0732 72.7019 74.9463C72.4576 74.8343 72.1941 74.7233 72.0469 74.4855C71.5861 73.8305 71.1925 73.133 70.7701 72.4545C71.1712 72.2892 71.6331 72.1431 71.8656 71.7441C72.208 71.2257 72.1227 70.5655 72 69.9937C71.7931 69.39 71.1189 69.1105 70.5259 69.0999C69.3685 69.0583 68.2027 69.2268 67.0549 69.0508ZM16.5707 69.0903C16.0715 70.7073 15.5477 72.3202 14.9056 73.8882C14.7168 74.2743 14.6496 74.8418 14.1397 74.9218C14.1365 75.0519 14.1248 75.3132 14.1195 75.4444C14.7339 75.4241 15.3493 75.4241 15.9659 75.4391C15.9616 75.3036 15.9552 75.0295 15.9509 74.8919C15.8208 74.8716 15.5616 74.8321 15.4304 74.8119C15.5296 74.3927 15.6512 73.9799 15.7931 73.5746C16.4096 73.5767 17.0261 73.5692 17.6448 73.5692C17.7749 73.9628 17.9435 74.3521 17.9787 74.7713C17.8539 74.8023 17.6053 74.862 17.4816 74.8908C17.4635 75.0743 17.4475 75.2588 17.4347 75.4434C18.2539 75.4231 19.0741 75.4252 19.8933 75.438C19.8859 75.3132 19.872 75.0625 19.8645 74.9377C19.6981 74.8129 19.4475 74.7543 19.3835 74.5356C18.6784 72.7532 18.032 70.9452 17.5104 69.1009C17.1979 69.0967 16.8821 69.0924 16.5707 69.0903ZM21.1403 69.0977C21.1424 69.2353 21.1456 69.5127 21.1477 69.6513C21.3909 69.6801 21.6341 69.7111 21.8784 69.7441C21.9541 71.422 21.9595 73.1041 21.8912 74.7841C21.6448 74.8225 21.3995 74.8663 21.1573 74.9143C21.1467 75.0882 21.1371 75.2641 21.1264 75.4401C22.0843 75.4135 23.0411 75.4007 23.9968 75.4476C23.9915 75.31 23.9787 75.0327 23.9733 74.894C23.7408 74.8663 23.5093 74.8396 23.2789 74.814C23.1936 74.0545 23.1541 73.2876 23.248 72.5292C24.1131 73.3218 24.4779 74.5026 25.1392 75.4562C25.696 75.4583 26.2549 75.4562 26.8128 75.454C26.8107 75.3239 26.8053 75.0636 26.8021 74.9356C26.5632 74.8396 26.2869 74.7617 26.1515 74.5239C25.6821 73.8636 25.2939 73.1511 24.848 72.4759C25.2139 72.2978 25.6437 72.1676 25.8891 71.8199C26.3029 71.2503 26.2464 70.4684 26.0107 69.8434C25.6896 69.2194 24.9227 69.0668 24.2827 69.0903C23.2341 69.1159 22.1867 69.1468 21.1403 69.0977ZM27.9243 69.0977C27.9243 69.2353 27.9221 69.5095 27.9211 69.6471C28.2315 69.6855 28.5429 69.7303 28.8555 69.7719C28.8277 71.4583 28.9568 73.1543 28.7797 74.8354C28.4928 74.8556 28.2048 74.8737 27.92 74.8919C27.9232 75.0316 27.9285 75.3111 27.9328 75.4508C28.9269 75.4305 29.92 75.4071 30.9141 75.4562C30.9173 75.3196 30.9269 75.0487 30.9301 74.9121C30.6923 74.878 30.4533 74.8396 30.2187 74.8065C30.1568 74.0791 30.1461 73.3505 30.1408 72.6209C30.8533 72.6188 31.568 72.6167 32.2827 72.6263C32.2485 73.3484 32.3317 74.0876 32.1792 74.8001C31.9584 74.8417 31.7387 74.8769 31.5189 74.9068C31.5115 75.086 31.5051 75.2663 31.4987 75.4476C32.4459 75.4146 33.392 75.4242 34.3381 75.4423C34.3349 75.3058 34.3285 75.0359 34.3253 74.9015C34.0917 74.8695 33.8592 74.8386 33.6277 74.8076C33.5317 73.2193 33.5029 71.6183 33.6117 70.0311C33.5883 69.6577 34.0725 69.7409 34.304 69.6215C34.3093 69.4999 34.32 69.2556 34.3275 69.134C33.3824 69.1063 32.4384 69.1468 31.4955 69.0924C31.5029 69.2343 31.5168 69.5169 31.5243 69.6577C31.7568 69.6865 31.9904 69.7153 32.2261 69.7484C32.2624 70.4663 32.2773 71.1852 32.2709 71.9052C31.5584 71.8977 30.8459 71.8999 30.1344 71.9052C30.1451 71.1852 30.1013 70.4545 30.2869 69.7505C30.496 69.7121 30.7061 69.6759 30.9163 69.6396C30.9184 69.5105 30.9195 69.2556 30.9216 69.1265C29.9221 69.1212 28.9237 69.134 27.9243 69.0977ZM38.0555 69.102C37.5477 70.9484 36.8544 72.7308 36.1728 74.5185C36.1152 74.5057 35.9989 74.4844 35.9403 74.4716C35.8763 74.7148 35.7205 74.8652 35.472 74.9218C35.4539 75.0903 35.4379 75.2631 35.4229 75.4337C36.1013 75.4284 36.7808 75.4263 37.4613 75.4444C37.456 75.2609 37.4517 75.0796 37.4507 74.8983C37.3184 74.8748 37.0539 74.8258 36.9195 74.8023C37.0283 74.3874 37.1584 73.9788 37.2949 73.5746C37.9189 73.5618 38.5429 73.5767 39.1669 73.5746C39.2971 73.9884 39.4251 74.4033 39.5083 74.8311C39.3707 74.8439 39.0933 74.8673 38.9557 74.8801C38.9472 75.0668 38.9397 75.2556 38.9323 75.4444C39.7632 75.4231 40.5931 75.421 41.4261 75.4476C41.5563 74.9068 40.9312 74.798 40.8128 74.3649C40.1568 72.6295 39.504 70.8908 39.0176 69.1009C38.6944 69.0977 38.3755 69.0999 38.0555 69.102ZM42.6293 69.0903C42.6208 69.2321 42.6037 69.5148 42.5973 69.6556C42.8299 69.6866 43.0635 69.7207 43.2992 69.7548C43.296 71.4412 43.2011 73.1319 43.0251 74.8087C42.8256 74.8375 42.6283 74.8684 42.432 74.8993C42.4373 75.0369 42.448 75.3111 42.4533 75.4487C43.1989 75.4146 43.9445 75.4199 44.6912 75.4434C44.6784 75.2535 44.6677 75.0625 44.6581 74.8737C44.5163 74.8588 44.2357 74.8289 44.0939 74.8119C44.016 73.5116 44.1227 72.2081 44.224 70.9111C44.7424 72.4076 45.1925 73.9255 45.664 75.4359C45.9872 75.4508 46.3136 75.4636 46.64 75.4754C47.1947 73.9468 47.5776 72.3617 48.1835 70.8513C48.2357 72.1644 48.3488 73.4807 48.3104 74.7969C48.0875 74.83 47.8645 74.862 47.6448 74.8951C47.6373 75.0732 47.632 75.2524 47.6288 75.4337C48.5227 75.4316 49.4165 75.4135 50.3125 75.4487C50.3157 75.3111 50.3253 75.0338 50.3307 74.8951C50.1749 74.8716 49.8624 74.8247 49.7067 74.8012C49.4763 73.1255 49.4187 71.4241 49.4251 69.7345C49.6608 69.7015 49.8987 69.6727 50.1376 69.6417C50.1227 69.4572 50.112 69.2737 50.1013 69.0903C49.3813 69.0999 48.6635 69.1063 47.9456 69.0871C47.4901 70.6391 47.0133 72.1879 46.4373 73.7026C45.8496 72.2103 45.4165 70.6636 45.0283 69.1105C44.2293 69.0903 43.4293 69.1084 42.6293 69.0903ZM51.7728 69.1265C51.7696 69.2503 51.7643 69.4967 51.7621 69.6193C52.0011 69.6887 52.2464 69.7484 52.4949 69.7932C52.4459 71.3815 52.3627 72.9719 52.2432 74.5569C52.2229 74.8737 51.8155 74.8343 51.6085 74.9346C51.6107 75.0636 51.6139 75.3228 51.616 75.4508C52.2997 75.4177 52.9867 75.422 53.6747 75.4455C53.6672 75.3089 53.6565 75.0391 53.6491 74.9036C53.4475 74.8588 53.2469 74.8129 53.0475 74.7671C53.0261 73.4775 53.1285 72.19 53.1851 70.9026C53.7707 72.3863 54.1589 73.9383 54.6592 75.4508C54.9909 75.4508 55.3248 75.4508 55.6587 75.4487C56.1504 73.8892 56.6379 72.3276 57.1584 70.7788C57.2256 72.1207 57.3429 73.4668 57.2875 74.8119C57.0656 74.8375 56.8448 74.8609 56.6272 74.8865C56.6304 75.0753 56.6368 75.2642 56.6432 75.454C57.5947 75.4071 58.5472 75.4327 59.5008 75.4412C59.4987 75.3068 59.4955 75.0369 59.4933 74.9004C59.2235 74.8663 58.9547 74.846 58.6912 74.7937C58.4661 73.1233 58.4011 71.4209 58.4149 69.7324C58.6453 69.7068 58.8757 69.6823 59.1093 69.6577C59.1115 69.518 59.1168 69.2353 59.1189 69.0935C58.3861 69.1031 57.6533 69.0967 56.9205 69.0988C56.4565 70.6433 56.0064 72.1943 55.424 73.7015C54.8309 72.205 54.4085 70.6508 54.0011 69.0967C53.2587 69.0903 52.5141 69.0903 51.7728 69.1265ZM60.6048 69.6236C60.8501 69.6727 61.1019 69.7089 61.3451 69.7815C61.4645 71.3644 61.4155 72.9655 61.3835 74.5527C61.4112 74.9484 60.8661 74.8119 60.6421 74.9132C60.6272 75.0892 60.6144 75.2652 60.6037 75.4444C62.2325 75.47 63.8624 75.4519 65.4933 75.4519C65.5808 74.8513 65.6672 74.253 65.7568 73.6546C65.4517 73.6151 65.1477 73.5767 64.8459 73.5404C64.7083 73.9425 64.6048 74.3671 64.3776 74.7319C63.8571 74.7479 63.2661 74.8844 62.7872 74.6679C62.5931 74.03 62.7456 73.2983 62.6784 72.6263C63.3653 72.6188 64.0544 72.6231 64.7424 72.6412C64.7424 72.3639 64.7424 72.0865 64.7456 71.8103C64.0565 71.8359 63.3696 71.8316 62.6837 71.8231C62.7072 71.149 62.7221 70.4737 62.7115 69.7996C63.2789 69.7889 63.8485 69.7868 64.4181 69.7847C64.5035 70.2017 64.608 70.6156 64.6923 71.0337C64.9803 71.0369 65.2693 71.0434 65.5595 71.0487C65.5691 70.3938 65.5627 69.7399 65.5435 69.0849C63.9147 69.1105 62.288 69.1052 60.6613 69.0903C60.6389 69.2684 60.6208 69.4465 60.6048 69.6236Z" fill="white"/>
<path d="M5.13477 68.0482C6.00303 68.0759 6.87343 68.0812 7.74276 68.0386C7.7481 68.1634 7.76303 68.4119 7.76837 68.5378C7.6361 68.5634 7.36943 68.6156 7.23717 68.6412C7.3897 70.3244 7.97317 71.9511 8.5193 73.5415C8.86383 72.5655 9.16356 71.5725 9.46223 70.5804C9.31503 69.918 9.0921 69.2748 8.7817 68.6732C8.6889 68.6444 8.50437 68.5858 8.41157 68.5591C8.40837 68.4322 8.40196 68.1762 8.39876 68.0492C9.28943 68.0727 10.179 68.0706 11.0697 68.0546C11.0569 68.174 11.0334 68.414 11.0206 68.5314C10.8105 68.589 10.6014 68.6498 10.3934 68.7127C10.7038 70.365 11.1988 71.981 11.7918 73.5533C12.1492 72.5229 12.4809 71.4839 12.7636 70.4322C12.8158 70.4599 12.9236 70.5122 12.9758 70.5378C13.0356 69.9468 13.2062 69.3751 13.3417 68.8002C13.0697 68.6498 12.7593 68.606 12.4585 68.5612C12.4425 68.3938 12.4254 68.2274 12.4094 68.062C13.1998 68.062 13.9902 68.0674 14.7817 68.0642C14.7604 68.2306 14.7358 68.398 14.7124 68.5687C14.1012 68.8012 13.8782 69.4722 13.7481 70.0556C13.5636 70.9677 13.2009 71.8295 12.9737 72.7319C12.9214 72.7159 12.8158 72.6871 12.7636 72.6722C12.5374 73.6151 12.1801 74.5197 11.9401 75.4615C11.603 75.4637 11.2638 75.4637 10.9268 75.4658C10.5822 74.2381 10.2281 73.0125 9.83343 71.7986C9.4057 73.0039 9.03876 74.2327 8.69636 75.4637C8.35503 75.4658 8.01477 75.4669 7.67343 75.469C7.21477 73.5554 6.5289 71.7058 6.01263 69.8092C5.83983 69.3399 5.68943 68.7575 5.17637 68.5527C5.16463 68.4258 5.14543 68.173 5.13477 68.0482Z" fill="black"/>
<path d="M67.0547 69.0508C68.2025 69.2268 69.3683 69.0582 70.5257 69.0977C71.1187 69.1084 71.7929 69.3878 71.9998 69.9916C72.1235 70.5633 72.2089 71.2225 71.8654 71.742C71.6329 72.1409 71.171 72.2881 70.7699 72.4524C71.1923 73.1308 71.5859 73.8284 72.0467 74.4833C72.1939 74.7212 72.4563 74.8311 72.7017 74.9441C72.7038 75.0711 72.7102 75.3249 72.7123 75.4519C72.1555 75.454 71.6009 75.454 71.0462 75.4497C70.5225 74.5324 69.9891 73.6183 69.459 72.702C69.3758 72.6807 69.2073 72.6327 69.1219 72.6092C69.1017 73.342 69.1198 74.0759 69.187 74.8076C69.4206 74.8332 69.6553 74.8599 69.8921 74.8855C69.8974 75.07 69.9049 75.2577 69.9134 75.4455C68.9577 75.4017 68.0019 75.4145 67.0483 75.438C67.0537 75.3004 67.0665 75.0231 67.0718 74.8855C67.3001 74.8652 67.5305 74.8471 67.763 74.8289C67.9518 73.1457 67.8121 71.4444 67.8259 69.7548C67.5721 69.7164 67.3182 69.6801 67.0675 69.6481C67.0622 69.4476 67.0569 69.2481 67.0547 69.0508ZM69.1219 69.7399C69.1294 70.5196 69.1006 71.2993 69.1017 72.0812C69.635 72.1025 70.2878 72.0865 70.6089 71.582C70.9278 71.0839 70.6665 70.5153 70.5694 69.9948C70.1395 69.6929 69.6169 69.7271 69.1219 69.7399Z" fill="black"/>
<path d="M21.1404 69.0976C22.1868 69.1467 23.2354 69.1158 24.2818 69.0902C24.9218 69.0667 25.6887 69.2192 26.0098 69.8432C26.2455 70.4683 26.302 71.2502 25.8882 71.8198C25.6439 72.1675 25.214 72.2987 24.8471 72.4758C25.293 73.1499 25.6812 73.8635 26.1506 74.5227C26.2871 74.7606 26.5623 74.8384 26.8012 74.9344C26.8044 75.0635 26.8108 75.3227 26.8119 75.4528C26.253 75.455 25.6951 75.456 25.1383 75.455C24.4759 74.5014 24.1122 73.3206 23.2471 72.528C23.1532 73.2864 23.1927 74.0534 23.278 74.8128C23.5084 74.8384 23.7399 74.8651 23.9724 74.8928C23.9778 75.0304 23.9906 75.3078 23.9959 75.4464C23.0402 75.3995 22.0823 75.4123 21.1255 75.439C21.1362 75.263 21.1458 75.087 21.1564 74.9131C21.3996 74.864 21.6439 74.8203 21.8903 74.783C21.9596 73.104 21.9543 71.4208 21.8775 69.743C21.6332 69.7099 21.39 69.679 21.1468 69.6502C21.1458 69.5136 21.1415 69.2363 21.1404 69.0976ZM23.2108 69.7323C23.213 70.5248 23.1639 71.3174 23.2034 72.1099C23.7036 72.0811 24.3074 72.1014 24.6327 71.6384C25.021 71.152 24.7682 70.528 24.6508 69.9958C24.221 69.7035 23.7058 69.7259 23.2108 69.7323Z" fill="black"/>
<path d="M38.0554 69.1019C38.3743 69.0998 38.6933 69.0987 39.0165 69.0998C39.5029 70.8897 40.1557 72.6283 40.8117 74.3649C40.9301 74.7979 41.5551 74.9067 41.425 75.4475C40.593 75.4198 39.7621 75.4219 38.9311 75.4443C38.9386 75.2555 38.9461 75.0667 38.9546 74.8801C39.0922 74.8673 39.3695 74.8438 39.5071 74.831C39.4239 74.4033 39.297 73.9873 39.1658 73.5745C38.5418 73.5766 37.9178 73.5617 37.2949 73.5745C37.1594 73.9787 37.0282 74.3873 36.9194 74.8022C37.0538 74.8257 37.3183 74.8747 37.4506 74.8982C37.4527 75.0795 37.4559 75.2609 37.4613 75.4443C36.7807 75.4262 36.1013 75.4283 35.4229 75.4337C35.4378 75.263 35.4538 75.0913 35.4719 74.9227C35.7205 74.8662 35.8762 74.7158 35.9402 74.4737C35.9989 74.4865 36.1141 74.5078 36.1727 74.5206C36.8554 72.7307 37.5477 70.9473 38.0554 69.1019ZM38.2357 70.9409C37.9893 71.5915 37.7567 72.2486 37.5242 72.9046C37.9871 72.9121 38.4511 72.9121 38.9173 72.9121C38.7018 72.2497 38.4671 71.5947 38.2357 70.9409Z" fill="black"/>
<path d="M51.7726 69.1264C52.5139 69.0901 53.2574 69.0901 54.0008 69.0987C54.4083 70.6528 54.8318 72.2069 55.4238 73.7035C56.0062 72.1963 56.4552 70.6464 56.9203 69.1008C57.6531 69.0987 58.3859 69.104 59.1187 69.0955C59.1166 69.2373 59.1112 69.52 59.1091 69.6597C58.8755 69.6832 58.6451 69.7088 58.4147 69.7344C58.3998 71.4229 58.4659 73.1253 58.691 74.7957C58.9534 74.848 59.2222 74.8683 59.4931 74.9024C59.4952 75.0389 59.4984 75.3088 59.5006 75.4432C58.547 75.4347 57.5944 75.4091 56.643 75.456C56.6355 75.2661 56.6302 75.0773 56.627 74.8885C56.8446 74.8629 57.0654 74.8395 57.2872 74.8139C57.3438 73.4688 57.2254 72.1227 57.1582 70.7808C56.6376 72.3296 56.1502 73.8912 55.6584 75.4507C55.3246 75.4528 54.9907 75.4528 54.659 75.4528C54.1587 73.9403 53.7704 72.3883 53.1848 70.9045C53.1283 72.192 53.0248 73.4795 53.0472 74.7691C53.2467 74.8139 53.4483 74.8597 53.6488 74.9045C53.6563 75.04 53.667 75.3109 53.6744 75.4464C52.9875 75.4229 52.2995 75.4187 51.6168 75.4517C51.6147 75.3227 51.6115 75.0635 51.6094 74.9355C51.8163 74.8352 52.2238 74.8757 52.244 74.5579C52.3635 72.9728 52.4467 71.3824 52.4958 69.7941C52.2472 69.7483 52.003 69.6885 51.763 69.6203C51.764 69.4965 51.7694 69.2501 51.7726 69.1264Z" fill="black"/>
<path d="M16.5698 69.0901C16.8823 69.0922 17.197 69.0954 17.5106 69.1008C18.0332 70.945 18.6786 72.753 19.3836 74.5354C19.4476 74.7552 19.6972 74.8127 19.8647 74.9375C19.8722 75.0623 19.886 75.313 19.8935 75.4378C19.0743 75.425 18.254 75.4229 17.4348 75.4432C17.4476 75.2586 17.4636 75.073 17.4818 74.8906C17.6055 74.8618 17.854 74.8021 17.9788 74.7711C17.9447 74.3519 17.7762 73.9626 17.645 73.569C17.0263 73.569 16.4098 73.5765 15.7932 73.5744C15.6514 73.9786 15.5308 74.3925 15.4306 74.8117C15.5607 74.8319 15.8199 74.8714 15.9511 74.8917C15.9543 75.0293 15.9618 75.3034 15.966 75.4389C15.3495 75.4239 14.7351 75.4239 14.1196 75.4442C14.125 75.3141 14.1356 75.0528 14.1399 74.9216C14.6498 74.8416 14.717 74.2741 14.9047 73.888C15.5479 72.32 16.0716 70.7082 16.5698 69.0901ZM16.03 72.9077C16.494 72.9098 16.958 72.9109 17.4242 72.9077C17.1938 72.2474 16.9548 71.5893 16.7383 70.9258C16.4972 71.584 16.2498 72.241 16.03 72.9077Z" fill="black"/>
<path d="M42.6295 69.0903C43.4295 69.1084 44.2284 69.0903 45.0284 69.1116C45.4167 70.6636 45.8497 72.2103 46.4375 73.7036C47.0145 72.1889 47.4913 70.6412 47.9468 69.0881C48.6647 69.1084 49.3825 69.1009 50.1025 69.0913C50.1132 69.2748 50.1239 69.4572 50.1388 69.6428C49.8999 69.6737 49.662 69.7025 49.4263 69.7356C49.4188 71.4252 49.4775 73.1265 49.7079 74.8023C49.8636 74.8257 50.1761 74.8727 50.3319 74.8961C50.3265 75.0337 50.3169 75.3111 50.3137 75.4487C49.4177 75.4145 48.5239 75.4327 47.63 75.4337C47.6332 75.2524 47.6385 75.0732 47.646 74.8951C47.8657 74.862 48.0887 74.83 48.3116 74.7969C48.35 73.4807 48.2369 72.1633 48.1847 70.8513C47.5788 72.3617 47.1969 73.9468 46.6412 75.4753C46.3148 75.4625 45.9884 75.4497 45.6652 75.4359C45.1937 73.9255 44.7436 72.4076 44.2252 70.9111C44.1239 72.2081 44.0161 73.5116 44.0951 74.8119C44.2369 74.8279 44.5175 74.8588 44.6593 74.8737C44.6679 75.0625 44.6796 75.2524 44.6924 75.4433C43.9447 75.4199 43.2001 75.4145 42.4545 75.4487C42.4492 75.3111 42.4385 75.0369 42.4321 74.8993C42.6284 74.8684 42.8257 74.8375 43.0252 74.8087C43.2012 73.1319 43.2951 71.4412 43.2993 69.7548C43.0636 69.7207 42.83 69.6855 42.5975 69.6556C42.6039 69.5148 42.6209 69.2321 42.6295 69.0903Z" fill="black"/>
<path d="M27.9242 69.0978C28.9237 69.134 29.9221 69.1212 30.9215 69.1266C30.9194 69.2556 30.9183 69.5106 30.9162 69.6396C30.7061 69.6759 30.4959 69.7122 30.2869 69.7506C30.1023 70.4546 30.145 71.1852 30.1343 71.9052C30.8447 71.8999 31.5583 71.8978 32.2709 71.9052C32.2762 71.1852 32.2623 70.4674 32.2261 69.7495C31.9903 69.7164 31.7567 69.6876 31.5242 69.6588C31.5167 69.517 31.5029 69.2343 31.4954 69.0935C32.4383 69.1479 33.3834 69.1084 34.3274 69.1351C34.3199 69.2567 34.3093 69.501 34.3039 69.6226C34.0714 69.742 33.5882 69.6588 33.6117 70.0322C33.5029 71.6194 33.5317 73.2204 33.6277 74.8087C33.8602 74.8396 34.0917 74.8706 34.3253 74.9026C34.3285 75.037 34.3349 75.3068 34.3381 75.4434C33.3919 75.4252 32.4447 75.4156 31.4986 75.4487C31.5039 75.2674 31.5114 75.0882 31.5189 74.9079C31.7386 74.877 31.9573 74.8428 32.1791 74.8012C32.3317 74.0887 32.2485 73.3484 32.2826 72.6274C31.5679 72.6178 30.8533 72.6199 30.1407 72.622C30.1461 73.3506 30.1567 74.0802 30.2186 74.8076C30.4522 74.8396 30.6922 74.878 30.9301 74.9122C30.9269 75.0487 30.9173 75.3207 30.9141 75.4562C29.9199 75.4071 28.9269 75.4306 27.9327 75.4508C27.9295 75.3111 27.9231 75.0316 27.9199 74.8919C28.2047 74.8738 28.4927 74.8556 28.7797 74.8354C28.9578 73.1543 28.8287 71.4583 28.8554 69.7719C28.5439 69.7303 28.2314 69.6844 27.921 69.6471C27.9221 69.5095 27.9242 69.2364 27.9242 69.0978Z" fill="black"/>
<path d="M60.6048 69.6236C60.6208 69.4455 60.6389 69.2684 60.6592 69.0903C62.2858 69.1052 63.9125 69.1106 65.5413 69.085C65.5616 69.7399 65.5669 70.3948 65.5573 71.0487C65.2671 71.0434 64.9791 71.038 64.6901 71.0338C64.6069 70.6146 64.5013 70.2018 64.416 69.7847C63.8464 69.7868 63.2768 69.7879 62.7093 69.7996C62.72 70.4748 62.7061 71.149 62.6816 71.8231C63.3674 71.8327 64.0544 71.8359 64.7434 71.8103C64.7402 72.0855 64.7402 72.3628 64.7402 72.6412C64.0533 72.6231 63.3642 72.6199 62.6762 72.6263C62.7434 73.2994 62.5909 74.03 62.785 74.6679C63.264 74.8834 63.8549 74.7479 64.3754 74.7319C64.6016 74.3671 64.705 73.9426 64.8437 73.5404C65.1445 73.5767 65.4496 73.6151 65.7546 73.6546C65.6661 74.253 65.5786 74.8514 65.4912 75.4519C63.8613 75.4519 62.2304 75.47 60.6016 75.4444C60.6122 75.2652 60.625 75.0892 60.64 74.9132C60.865 74.8119 61.409 74.9474 61.3813 74.5527C61.4144 72.9655 61.4634 71.3644 61.3429 69.7815C61.1018 69.709 60.849 69.6727 60.6048 69.6236Z" fill="black"/>
<path d="M69.1223 69.7397C69.6173 69.7269 70.1399 69.6928 70.5698 69.9957C70.6679 70.5162 70.9293 71.0837 70.6093 71.5829C70.2882 72.0874 69.6354 72.1034 69.1021 72.0821C69.101 71.2992 69.1298 70.5194 69.1223 69.7397Z" fill="white"/>
<path d="M38.2359 70.9409C38.4684 71.5958 38.702 72.2497 38.9175 72.9121C38.4513 72.9121 37.9873 72.9121 37.5244 72.9046C37.7569 72.2476 37.9884 71.5916 38.2359 70.9409Z" fill="white"/>
<path d="M16.0298 72.9079C16.2495 72.2402 16.4981 71.5842 16.7391 70.926C16.9546 71.5895 17.1946 72.2476 17.425 72.9079C16.9578 72.9122 16.4938 72.91 16.0298 72.9079Z" fill="white"/>
</svg>
