<?xml version="1.0" encoding="UTF-8" standalone="no"?><!DOCTYPE svg PUBLIC "-//W3C//DTD SVG 1.1//EN" "http://www.w3.org/Graphics/SVG/1.1/DTD/svg11.dtd"><svg width="100%" height="100%" viewBox="0 0 317 317" version="1.1" xmlns="http://www.w3.org/2000/svg" xmlns:xlink="http://www.w3.org/1999/xlink" xml:space="preserve" xmlns:serif="http://www.serif.com/" style="fill-rule:evenodd;clip-rule:evenodd;stroke-linejoin:round;stroke-miterlimit:2;"><rect id="Artboard1" x="0" y="0" width="316.373" height="316.667" style="fill:none;"/><g id="Artboard11" serif:id="Artboard1"><g><path d="M243.761,14.096l0,-14.096l-15.666,0l0,14.096l-155.549,0l0,-14.096l-15.666,0l0,14.096l-13.982,0l0,15.987l13.982,0l0,99.779l15.666,0l0,-63.594l3.185,0c4.151,26.301 12.233,52.889 23.499,62.825l13.238,0c-14.178,-18.086 -27.233,-66.632 -27.794,-99.01l131.293,0c-0.561,32.377 -13.616,80.924 -27.794,99.01l13.237,0c11.266,-9.936 19.347,-36.524 23.499,-62.825l3.173,0l0,63.594l15.666,0l0,-99.779l13.982,0l0,-15.987l-13.982,0l0.013,0Z" style="fill:#c09a5d;fill-rule:nonzero;"/><path d="M56.985,302.571l0,14.096l15.653,0l0,-14.096l155.484,0l0,14.096l15.653,0l0,-14.096l13.982,0l0,-15.987l-13.982,0l0,-99.779l-15.653,0l0,63.594l-3.173,0c-4.151,-26.301 -12.233,-52.889 -23.486,-62.825l-13.225,0c14.165,18.086 27.22,66.633 27.781,99.01l-131.228,0c0.561,-32.377 13.603,-80.924 27.781,-99.01l-13.225,0c-11.253,9.936 -19.347,36.524 -23.486,62.825l-3.172,0l0,-63.594l-15.653,0l0,99.779l-13.982,0l0,15.987l13.982,0l-0.052,0Z" style="fill:#c09a5d;fill-rule:nonzero;"/><path d="M223.017,172.436c-0.887,0 -1.201,0.026 -2.741,-0.013c-1.998,-0.065 -2.48,-0.443 -2.48,-2.907l0,-23.419c0,-2.191 1.997,-2.373 3.537,-2.373l0.653,0c8.002,0.091 9.439,7.159 9.53,14.265c0,7.758 -1.802,14.265 -8.499,14.448Zm-0.535,-31.087l-18.094,0l0,2.465l1.684,0c3.264,0 3.446,0.274 3.446,2.738l0,23.667c0,2.087 -0.757,2.269 -3.081,2.36c-1.58,0.026 -1.449,0.039 -2.05,0.039l0,2.438l19.321,0c9.909,0 16.984,-5.255 16.984,-16.677c0,-9.91 -4.752,-17.017 -18.211,-17.017" style="fill:#c09a5d;fill-rule:nonzero;"/><path d="M204.388,141.349l-14.452,0l0,2.556c3.668,0 5.261,1.239 5.261,2.556c0,0.508 0.078,0.547 -0.352,1.382l-4.909,8.932l-6.645,-10.966c-0.091,-0.17 -0.378,-0.548 -0.417,-0.887c0.039,-0.652 1.736,-1.017 4.569,-1.017l0,-2.465l-17.69,0l0,2.465l0.757,0c0.888,0 2.102,0.287 3.068,1.812l9.439,15.061l0,9.975c0,2.008 -1.801,1.734 -5.078,1.825l0,2.451l18.943,0l0,-2.451c-4.426,-0.091 -5.588,0 -5.588,-2.1l0,-9.61l7.245,-13.157c1.122,-1.734 3.316,-3.716 5.809,-3.899l0.026,0l0,-2.465l0.013,0Z" style="fill:#c09a5d;fill-rule:nonzero;"/><path d="M149.675,151.911c-0.47,-0.248 -2.859,-1.2 -2.859,-3.873c0,-2.673 2.937,-4.916 6.475,-4.916c3.995,0 8.786,2.647 11.632,10.093l2.272,0l0,-11.723l-2.65,0l-2.559,1.813c-2.506,-1.813 -5.535,-1.813 -8.525,-1.813c-6.188,0 -11.71,3.116 -11.906,9.023c0,14.852 20.053,9.675 21.358,16.025c0.105,0.378 0.105,0.835 0.105,1.382c0,3.26 -2.846,5.438 -6.371,5.438c-4.373,-0.078 -9.83,-3.156 -12.794,-10.953l-2.298,0l0,13.065l2.468,0l2.885,-2.947c4.421,1.713 7.655,2.569 9.7,2.569c6.567,0 11.645,-3.625 12.023,-8.776c0.039,-0.483 0.039,-0.887 0.039,-1.317c0,-12.922 -15.509,-11.201 -19.008,-13.092" style="fill:#c09a5d;fill-rule:nonzero;"/><path d="M122.938,158.079l-3.72,0l0,-12.544c0,-1.434 2.01,-1.812 3.72,-1.812c1.162,0 2.193,0.182 2.52,0.182c4.374,0.652 4.83,3.638 4.83,6.976c0,4.095 -1.449,7.198 -7.35,7.198Zm2.729,-16.586l-19.661,0l0,2.412l1.488,0c2.337,0 3.355,0.287 3.355,1.265l0,24.997c0,2.139 0,2.321 -4.843,2.321l0,2.569l18.277,0l0,-2.569c-1.071,0 -2.089,0 -2.872,0.091c-1.488,-0.091 -2.193,-0.287 -2.193,-1.526l0,-10.536c1.488,0.078 2.846,0.118 4.151,0.118c13.669,0 15.731,-4.812 15.731,-9.754c0,-5.438 -3.055,-9.388 -13.433,-9.388Z" style="fill:#c09a5d;fill-rule:nonzero;"/><path d="M72.246,144.048c3.903,0.091 4.974,-0.378 4.974,2.269l0,23.993c0,1.89 -0.835,2.36 -3.159,2.36l-1.802,0l0,2.465l31.267,0l0,-12.518l-1.88,-0.026c-2.193,6.324 -3.76,10.001 -12.128,10.001c-3.303,-0.104 -3.995,-0.182 -3.995,-2.425l0,-11.188c5.013,0 7.245,3.117 7.35,7.211l2.559,0l-0.183,-16.247l-2.376,0c-0.326,4.094 -2.663,6.663 -6.318,6.663c-0.327,0 -0.718,0 -1.032,-0.026l0,-9.962c0,-2.36 1.998,-2.542 3.995,-2.634c8.472,0 10.457,4.316 12.05,9.675l1.958,0l0.039,-12.14l-31.306,0.091l0,2.478l-0.013,-0.039Z" style="fill:#c09a5d;fill-rule:nonzero;"/><path d="M290.693,161.887l4.713,-11.514l4.648,11.514l-9.36,0Zm-29.726,-5.633l-4.595,0.196l0,-10.132c0,-2.087 1.253,-2.556 3.159,-2.556c0.744,0 1.436,0.091 2.193,0.091c4.648,0.183 5.522,2.921 5.522,5.881c0,3.507 -1.527,6.428 -6.293,6.52m31.737,18.764l0,-2.543c-3.029,0 -4.569,-0.965 -4.648,-3.064c0.078,-1.265 0.535,-2.83 1.345,-4.655l11.906,0l2.102,5.633c0.091,0.274 0.183,0.652 0.183,1.03c0,0.782 -0.836,1.056 -2.102,1.056l-1.436,0l0,2.543l16.332,0l0,-2.543c-1.906,0 -3.251,-0.183 -4.191,-2.269l-12.233,-28.765l-3.537,0l-11.214,25.701c-0.979,2.217 -1.606,3.468 -3.185,4.433c-1.723,1.082 -3.16,0.9 -4.805,0.183c-0.822,-0.313 -1.553,-0.847 -2.062,-1.565c-0.81,-1.135 -1.384,-2.504 -1.671,-3.743c-0.757,-3.286 -2.22,-7.107 -7.494,-8.215c6.802,-0.365 10.248,-4.433 10.248,-8.437c0,-4.251 -3.721,-8.437 -10.979,-8.437l-22.05,0.105l0,2.451l1.906,0c2.52,0 2.976,0.482 2.976,2.008l0,24.019c0,2.412 -0.457,2.608 -4.883,2.608l0,2.452l18.329,0l0,-2.556c-0.744,0 -1.436,0 -2.089,0.104c-2.376,-0.104 -3.068,-0.378 -3.068,-2.008l0,-11.801c0.64,-0.053 1.253,-0.091 1.815,-0.091c10.744,0 4.138,8.945 8.603,14.382c1.123,1.343 3.303,1.969 5.535,1.969l20.392,0l-0.026,0.013Z" style="fill:#c09a5d;fill-rule:nonzero;"/><path d="M33.682,170.858c-3.146,-4.055 -10.979,-17.33 -10.979,-17.33l4.086,-4.368c2.01,-2.008 5.157,-5.072 9.06,-5.164l0,-2.451l-15.679,0l0,2.451c3.081,0 4.909,0.287 4.909,1.526c0,0.247 -0.065,0.521 -0.196,0.834c-0.222,0.535 -0.574,1.018 -0.966,1.447l-10.836,11.527l0,-13.431c0,-1.525 0.875,-1.904 3.433,-1.904l1.175,0l0,-2.451l-17.689,0l0,2.451c4.791,0 4.791,0.287 4.791,1.63l0,25.14c0,1.291 0,1.8 -4.791,1.8l0,2.555l17.676,0l0,-2.555c-3.721,0 -4.608,0 -4.608,-1.904l0,-7.237l4.086,-4.186l6.332,10.458c0.548,0.795 0.849,1.447 0.849,2.008c0,0.874 -1.423,0.874 -4.164,0.874l0,2.556l17.128,0l0,-2.582c-2.533,-0.117 -2.715,-0.522 -3.616,-1.682" style="fill:#c09a5d;fill-rule:nonzero;"/><path d="M69.739,162.539l-2.467,0c-1.736,8.41 -5.822,9.858 -11.358,10.04c-1.357,0.039 -0.783,0.026 -2.05,-0.052c-2.141,-0.13 -2.742,-0.73 -2.742,-2.034l0,-24.684c0,-1.525 0.797,-1.813 2.272,-1.813l2.99,0l0,-2.465l-18.042,0l0,2.465l1.044,0c3.447,0 3.447,0.756 3.447,2.269l0,24.032c0,2.073 -1.501,2.243 -4.269,2.256l0,2.556l31.162,0l0,-12.596l0.013,0.026Z" style="fill:#c09a5d;fill-rule:nonzero;"/></g></g></svg>