<?xml version="1.0" encoding="utf-8"?>
<!-- Generator: Adobe Illustrator 23.1.0, SVG Export Plug-In . SVG Version: 6.00 Build 0)  -->
<svg version="1.1" id="Warstwa_1" xmlns="http://www.w3.org/2000/svg" xmlns:xlink="http://www.w3.org/1999/xlink" x="0px" y="0px"
	 width="297.44px" height="197.62px" viewBox="0 0 297.44 197.62" enable-background="new 0 0 297.44 197.62" xml:space="preserve">
<g id="Group_2" transform="translate(-3407 -1850)">
	<g id="Group_1" transform="translate(3407 1850)">
		<path id="Path_1" fill-rule="evenodd" clip-rule="evenodd" fill="#ED6823" d="M137.45,121.7c-45.1,3.23-83-24.7-82.7-70.04
			c0.01-9.83,2.21-19.54,6.45-28.41l33.55,25.16c-4.92,6.01-8.04,12.91-9.1,22.98C82.34,102.71,105.65,119.21,137.45,121.7"/>
		<path id="Path_2" fill-rule="evenodd" clip-rule="evenodd" fill="#555554" d="M230.62,110.91L212.7,86.88l30.61-23.05h-17.57
			l-28.59,22.65l10.7-39.69h-13.93l-17.28,64.12h13.93l6.17-22.89l15.22,22.89H230.62z M165.26,110.91l10.26-38.07h-35.68
			l-3.06,11.36h20.21l-4.07,15.1h-17.02c-12.2,0-15.34-6.25-11.66-19.89c3.96-14.69,10.71-21.51,22.82-21.51h32.5l3-11.12h-32.5
			c-23.03,0-36.7,10.55-42.81,33.2c-3.13,11.61-1.76,20.05,4.19,25.32c5.81,5.11,12.6,5.6,21.34,5.6L165.26,110.91z"/>
		<path id="Path_3" fill-rule="evenodd" clip-rule="evenodd" fill="#555554" d="M297.44,156.61h-5.95l-12.41,16.02l-3.83-16.02
			h-6.06l5.25,21.91l-14.83,19.1h5.95L297.44,156.61z M260,183.08l1.47-5.18c-0.82,0.44-1.69,0.78-2.59,1.01
			c-0.81,0.21-1.63,0.31-2.47,0.31c-0.7,0.03-1.4-0.07-2.06-0.29c-0.44-0.15-0.79-0.49-0.95-0.93c-0.16-0.54-0.19-1.11-0.07-1.66
			c0.13-0.83,0.32-1.65,0.57-2.45l3.56-12.55H266l1.34-4.73h-8.54l1.8-6.33H260l-12.57,10.52l-0.16,0.55h4.68l-3.66,12.93
			c-0.45,1.49-0.76,3.03-0.93,4.58c-0.14,1.07,0.01,2.17,0.42,3.17c0.42,0.85,1.15,1.51,2.04,1.84c1.27,0.45,2.61,0.65,3.95,0.6
			c1.06,0,2.12-0.11,3.16-0.34C257.99,183.89,259.02,183.54,260,183.08z M236.79,167.33h-14.48c0.84-1.96,2.19-3.66,3.91-4.92
			c1.63-1.13,3.58-1.72,5.56-1.69c1.1-0.03,2.19,0.25,3.14,0.82c0.83,0.54,1.45,1.35,1.74,2.3
			C237,164.97,237.04,166.18,236.79,167.33L236.79,167.33z M241.7,171.18l0.22-0.77c0.59-1.95,0.86-3.98,0.79-6.02
			c-0.05-1.59-0.51-3.14-1.33-4.51c-0.78-1.24-1.91-2.22-3.25-2.82c-1.57-0.68-3.27-1.01-4.98-0.97c-1.96,0-3.9,0.34-5.74,1
			c-1.82,0.66-3.51,1.61-5.02,2.82c-1.54,1.23-2.87,2.69-3.95,4.33c-1.13,1.71-1.99,3.59-2.55,5.56c-0.56,1.87-0.81,3.82-0.74,5.77
			c0.06,1.59,0.51,3.15,1.31,4.52c0.77,1.29,1.89,2.34,3.22,3.04c1.57,0.79,3.3,1.24,5.05,1.31c-1.18,1.08-2.22,2.31-3.09,3.66
			c-0.69,1.09-1.23,2.26-1.59,3.5c-0.47,1.64-0.28,2.85,0.57,3.63c0.85,0.78,2.38,1.17,4.57,1.16h3.96l1.17-4.13h-2.53
			c-0.74,0.1-1.49-0.1-2.08-0.55c-0.38-0.55-0.43-1.27-0.15-1.87c0.2-0.59,0.48-1.16,0.83-1.67c0.44-0.65,0.93-1.26,1.46-1.83
			c0.54-0.58,1.13-1.11,1.77-1.59c0.53-0.4,1.13-0.72,1.77-0.92c2.45-0.66,4.82-1.62,7.04-2.86l1.54-5.45
			c-2.13,1.2-4.38,2.19-6.71,2.95c-1.84,0.61-3.75,0.93-5.69,0.96c-1.46,0.06-2.9-0.28-4.18-0.98c-1.06-0.62-1.84-1.63-2.18-2.81
			c-0.38-1.47-0.38-3,0-4.47L241.7,171.18z M210.31,183.9l-15.2-21.95l23.5-19.38h-7.49l-22.51,18.6l5.27-18.6h-5.89l-11.71,41.33
			h5.89l5.79-20.42l14.15,20.42H210.31z M145.8,178.34c-1,0.64-2.07,1.16-3.2,1.53c-0.97,0.33-1.98,0.5-3,0.51
			c-1,0.1-2-0.23-2.75-0.91c-0.55-0.73-0.68-1.71-0.34-2.56c0.31-1.02,0.94-1.91,1.79-2.55c1.16-0.88,2.45-1.57,3.82-2.08
			c1.95-0.74,3.93-1.39,5.94-1.93L145.8,178.34z M154.32,181.92l0.95-3.36c-0.7,0.48-1.31,0.85-1.82,1.12
			c-0.44,0.25-0.92,0.39-1.42,0.42c-0.43,0-0.66-0.23-0.69-0.69c0.01-0.68,0.13-1.36,0.35-2.01l3.26-11.51
			c0.6-1.78,0.79-3.67,0.56-5.53c-0.22-1.39-1.09-2.58-2.33-3.23c-1.73-0.79-3.62-1.15-5.52-1.05c-1.93,0-3.85,0.28-5.7,0.83
			c-1.94,0.58-3.78,1.45-5.46,2.58l-1.53,5.4c1.77-1.16,3.67-2.12,5.65-2.86c1.58-0.59,3.26-0.91,4.95-0.95
			c1.81-0.02,3.02,0.34,3.65,1.07s0.69,1.89,0.23,3.51c-0.05,0.19-0.11,0.38-0.17,0.56c-0.06,0.2-0.13,0.4-0.22,0.6l-7.12,2.2
			c-2.8,0.76-5.44,2-7.81,3.67c-1.77,1.24-3.07,3.03-3.71,5.08c-0.38,1.13-0.4,2.35-0.07,3.5c0.33,1,1.05,1.82,1.99,2.29
			c1.26,0.59,2.64,0.87,4.03,0.82c0.95,0,1.9-0.1,2.84-0.29c0.96-0.21,1.91-0.52,2.81-0.92c1.04-0.45,2.04-0.96,3.01-1.54
			c-0.25,0.72-0.13,1.51,0.33,2.12c0.6,0.49,1.37,0.72,2.14,0.63c1.12-0.01,2.24-0.21,3.29-0.6
			C152.04,183.33,153.23,182.7,154.32,181.92L154.32,181.92z M122.02,170.25c-0.51,1.86-1.37,3.59-2.55,5.11
			c-2.19,2.82-5.56,4.45-9.13,4.42c-0.96,0.01-1.91-0.14-2.81-0.46c-0.84-0.32-1.62-0.8-2.28-1.41l4.34-15.31
			c0.97-0.59,2-1.07,3.08-1.41c0.99-0.31,2.03-0.46,3.07-0.46c1.56-0.07,3.11,0.33,4.45,1.14c1.13,0.75,1.92,1.92,2.18,3.25
			C122.68,166.82,122.56,168.59,122.02,170.25L122.02,170.25z M127.8,170.25c0.57-1.88,0.79-3.85,0.65-5.81
			c-0.11-1.6-0.62-3.15-1.49-4.51c-0.85-1.27-2.03-2.28-3.42-2.91c-1.6-0.72-3.34-1.08-5.09-1.04c-1.31-0.01-2.62,0.17-3.89,0.51
			c-1.31,0.37-2.56,0.92-3.71,1.63l0.44-1.54h-5.51l-11.63,41.03h5.51l4.31-15.2c0.81,0.71,1.77,1.24,2.81,1.55
			c1.17,0.34,2.39,0.51,3.61,0.49c1.94-0.01,3.86-0.36,5.68-1.04c1.84-0.69,3.55-1.67,5.06-2.91c1.57-1.28,2.93-2.79,4.04-4.49
			C126.34,174.24,127.22,172.3,127.8,170.25L127.8,170.25z M89.48,183.91l7.74-27.3h-5.45l-5.58,19.7
			c-0.79,0.75-1.65,1.41-2.57,1.99c-0.78,0.49-1.63,0.87-2.52,1.12c-0.87,0.24-1.76,0.36-2.66,0.35c-1.98,0.01-3.29-0.51-3.93-1.57
			c-0.65-1.06-0.65-2.68-0.03-4.86l4.74-16.73H73.7l-5.13,18.11c-0.54,1.66-0.64,3.44-0.29,5.16c0.33,1.37,1.19,2.56,2.39,3.3
			c1.46,0.83,3.13,1.24,4.81,1.17c1.59,0,3.17-0.32,4.64-0.93c1.73-0.72,3.36-1.67,4.85-2.82l-0.94,3.3L89.48,183.91z M68.82,158.8
			c-0.77-0.8-1.66-1.47-2.65-1.98c-0.88-0.44-1.84-0.66-2.82-0.66c-1.07,0.01-2.12,0.24-3.08,0.7c-1.15,0.56-2.22,1.27-3.17,2.12
			c-1.27,1.11-2.48,2.31-3.6,3.57l1.68-5.95h-5.45l-7.74,27.32h5.45l4.37-15.42c0.66-1.39,1.5-2.69,2.49-3.86
			c0.79-0.95,1.75-1.76,2.82-2.38c0.89-0.51,1.89-0.79,2.91-0.81c0.85-0.02,1.69,0.17,2.44,0.54c0.77,0.42,1.45,0.98,2,1.66
			L68.82,158.8z M34.49,181.1l4.95-17.46H25.56L24,169.15h7.76l-2.26,7.98c-1.56,0.6-3.17,1.07-4.81,1.41
			c-1.44,0.3-2.9,0.45-4.37,0.46c-2.15,0.04-4.28-0.37-6.26-1.21c-1.68-0.72-3.14-1.88-4.24-3.34c-1.08-1.47-1.76-3.19-1.98-4.99
			c-0.25-2.08-0.07-4.2,0.54-6.2c0.64-2.21,1.64-4.31,2.97-6.18c2.74-3.87,6.61-6.8,11.08-8.38c2.28-0.81,4.69-1.23,7.11-1.23
			c2.24,0,4.46,0.36,6.58,1.08c2.23,0.77,4.36,1.81,6.33,3.1l1.81-6.39c-2.02-1.1-4.16-1.95-6.39-2.52
			c-2.19-0.56-4.44-0.84-6.7-0.83c-3.26-0.02-6.5,0.51-9.59,1.55c-3.16,1.09-6.12,2.69-8.77,4.73c-1.73,1.29-3.32,2.75-4.74,4.37
			c-1.38,1.56-2.6,3.26-3.62,5.08c-0.98,1.73-1.75,3.56-2.3,5.47c-0.67,2.28-0.95,4.66-0.84,7.03c0.11,2.11,0.65,4.18,1.58,6.08
			c0.93,1.86,2.25,3.49,3.87,4.79c1.59,1.24,3.39,2.16,5.32,2.72c2.18,0.63,4.43,0.94,6.7,0.91c2.46-0.03,4.9-0.33,7.29-0.9
			C28.95,183.05,31.76,182.18,34.49,181.1L34.49,181.1z"/>
		<path id="Path_4" fill-rule="evenodd" clip-rule="evenodd" fill="#878787" d="M111.11,126.54C55.35,129.4,5.04,84.73,0.31,15.08
			C-0.04,10.06-0.09,5.03,0.14,0l42.74,32.51c-1.26,4.67-1.9,9.48-1.9,14.32c-0.54,43.84,25.2,69.71,60.07,77.88
			C104.33,125.47,107.69,126.09,111.11,126.54"/>
	</g>
</g>
</svg>
